STARTFONT 2.1
FONT -FontForge-Segoe UI Semibold-Demi-R-Normal--105-1010-75-75-P-549-ISO10646-1
SIZE 101 75 75
FONTBOUNDINGBOX 108 115 -8 -25
COMMENT "Generated by fontforge, http://fontforge.sourceforge.net"
COMMENT "(c) 2018 Microsoft Corporation. All Rights Reserved. "
COMMENT ""
COMMENT "Hebrew OpenType Layout logic copyright (c) 2003 & 2007, Ralph Hancock & John Hudson. This layout logic for Biblical Hebrew is open source software under the MIT License; see embedded license description for details."
STARTPROPERTIES 39
FOUNDRY "FontForge"
FAMILY_NAME "Segoe UI Semibold"
WEIGHT_NAME "Demi"
SLANT "R"
SETWIDTH_NAME "Normal"
ADD_STYLE_NAME ""
PIXEL_SIZE 105
POINT_SIZE 1010
RESOLUTION_X 75
RESOLUTION_Y 75
SPACING "P"
AVERAGE_WIDTH 549
CHARSET_REGISTRY "ISO10646"
CHARSET_ENCODING "1"
FONTNAME_REGISTRY ""
CHARSET_COLLECTIONS "ISO10646-1"
FONT_NAME "SegoeUI-Semibold"
FACE_NAME "Segoe UI Semibold"
COPYRIGHT "(c) 2018 Microsoft Corporation. All Rights Reserved. "
FONT_VERSION "5.62"
FONT_ASCENT 84
FONT_DESCENT 21
UNDERLINE_POSITION -12
UNDERLINE_THICKNESS 7
X_HEIGHT 52
CAP_HEIGHT 73
RAW_ASCENT 799
RAW_DESCENT 200
NORM_SPACE 29
RELATIVE_WEIGHT 60
RELATIVE_SETWIDTH 50
SUPERSCRIPT_X 0
SUPERSCRIPT_Y 50
SUPERSCRIPT_SIZE 68
SUBSCRIPT_X 0
SUBSCRIPT_Y 14
SUBSCRIPT_SIZE 68
AVG_LOWERCASE_WIDTH 535
AVG_UPPERCASE_WIDTH 663
ENDPROPERTIES
CHARS 117
STARTCHAR space
ENCODING 32
SWIDTH 274 0
DWIDTH 29 0
BBX 1 1 0 0
BITMAP
00
ENDCHAR
STARTCHAR exclam
ENCODING 33
SWIDTH 303 0
DWIDTH 32 0
BBX 15 75 9 -1
BITMAP
7FFC
7FFC
7FFC
7FFC
7FFC
7FFC
7FFC
7FFC
7FFC
7FFC
7FFC
7FFC
7FFC
7FFC
7FFC
7FFC
7FFC
7FFC
3FFC
3FFC
3FFC
3FFC
3FFC
3FFC
3FFC
3FF8
3FF8
3FF8
3FF8
3FF8
3FF8
3FF8
3FF8
3FF8
3FF8
3FF8
3FF8
3FF8
3FF8
3FF8
3FF8
3FF8
3FF8
3FF8
3FF8
3FF8
3FF8
3FF8
3FF8
3FF8
3FF8
3FF8
0000
0000
0000
0000
0000
0000
0000
0000
0000
07C0
1FF0
3FF8
7FFC
FFFC
FFFE
FFFE
FFFE
FFFE
FFFE
7FFC
3FF8
1FF0
07C0
ENDCHAR
STARTCHAR quotedbl
ENCODING 34
SWIDTH 437 0
DWIDTH 46 0
BBX 28 23 9 51
BITMAP
FF801FF0
FF801FF0
FF801FF0
FF801FF0
FF801FF0
FF801FF0
FF801FF0
FF801FF0
FF801FF0
FF801FF0
FF801FF0
FF801FF0
FF801FF0
FF801FF0
FF801FF0
FF801FF0
FF801FF0
FF801FF0
FF801FF0
FF801FF0
FF801FF0
FF801FF0
FF801FF0
ENDCHAR
STARTCHAR numbersign
ENCODING 35
SWIDTH 591 0
DWIDTH 62 0
BBX 59 68 1 6
BITMAP
000003FC001FE000
000007FC001FE000
000007FC003FE000
000007F8003FC000
000007F8003FC000
000007F8003FC000
00000FF8003FC000
00000FF8007FC000
00000FF0007F8000
00000FF0007F8000
00000FF0007F8000
00001FF0007F8000
00001FF000FF8000
00001FE000FF0000
00001FE000FF0000
00001FE000FF0000
00003FE000FF0000
00003FE001FF0000
00003FC001FE0000
00003FC001FE0000
07FFFFFFFFFFFFE0
07FFFFFFFFFFFFE0
07FFFFFFFFFFFFE0
07FFFFFFFFFFFFC0
07FFFFFFFFFFFFC0
0FFFFFFFFFFFFFC0
0FFFFFFFFFFFFFC0
0000FF0007FC0000
0000FF0007F80000
0000FF0007F80000
0000FF0007F80000
0001FF0007F80000
0001FE000FF00000
0001FE000FF00000
0001FE000FF00000
0001FE000FF00000
0003FE000FF00000
0003FC001FE00000
0003FC001FE00000
0003FC001FE00000
0003FC001FE00000
0003FC001FE00000
7FFFFFFFFFFFFF00
7FFFFFFFFFFFFF00
7FFFFFFFFFFFFE00
7FFFFFFFFFFFFE00
7FFFFFFFFFFFFE00
FFFFFFFFFFFFFE00
FFFFFFFFFFFFFC00
000FF0007F800000
000FF0007F800000
001FF000FF800000
001FE000FF000000
001FE000FF000000
001FE000FF000000
001FE000FF000000
003FE001FF000000
003FC001FE000000
003FC001FE000000
003FC001FE000000
003FC001FE000000
007F8003FE000000
007F8003FC000000
007F8003FC000000
007F8003FC000000
007F8003FC000000
00FF0007F8000000
00FF0007F8000000
ENDCHAR
STARTCHAR dollar
ENCODING 36
SWIDTH 555 0
DWIDTH 58 0
BBX 45 94 7 -11
BITMAP
00001F800000
00001F800000
00001F800000
00001F800000
00001F800000
00001F800000
00001F800000
00001F800000
00001F800000
00007FFF0000
0003FFFFF800
001FFFFFFF00
003FFFFFFF00
00FFFFFFFF00
01FFFFFFFF00
03FFFFFFFF00
07FFFFFFFF00
0FFFFFFFFF00
1FFFDF83FF00
1FFF1F801F00
3FFC1F800700
3FF81F800100
7FF81F800000
7FF01F800000
7FF01F800000
FFE01F800000
FFE01F800000
FFE01F800000
FFE01F800000
FFE01F800000
FFE01F800000
FFE01F800000
FFF01F800000
FFF01F800000
7FF81F800000
7FFC1F800000
7FFE1F800000
3FFF1F800000
3FFF9F800000
1FFFFF800000
0FFFFF800000
0FFFFF800000
07FFFF800000
01FFFFE00000
00FFFFF80000
007FFFFE0000
001FFFFF8000
0007FFFFE000
0001FFFFF000
00007FFFFC00
00001FFFFE00
00001FFFFF00
00001FFFFF80
00001FFFFFC0
00001F9FFFC0
00001F8FFFE0
00001F83FFE0
00001F81FFF0
00001F80FFF0
00001F80FFF0
00001F807FF8
00001F807FF8
00001F803FF8
00001F803FF8
00001F803FF8
00001F803FF8
00001F803FF8
00001F803FF8
40001F807FF0
60001F807FF0
78001F80FFF0
7E001F81FFE0
7FC01F87FFE0
7FFC1FBFFFC0
7FFFFFFFFF80
7FFFFFFFFF00
7FFFFFFFFE00
7FFFFFFFFC00
7FFFFFFFF800
3FFFFFFFE000
0FFFFFFF8000
01FFFFFC0000
000FFFC00000
00001F800000
00001F800000
00001F800000
00001F800000
00001F800000
00001F800000
00001F800000
00001F800000
00001F800000
00001F800000
00001F800000
ENDCHAR
STARTCHAR percent
ENCODING 37
SWIDTH 840 0
DWIDTH 88 0
BBX 78 76 4 -1
BITMAP
0007FC00000000000000
003FFF800000001FE000
00FFFFE00000001FC000
01FFFFF00000003F8000
07FFFFF80000007F8000
07FFFFFC0000007F0000
0FFFFFFE000000FF0000
1FFC0FFF000001FE0000
3FF003FF000001FC0000
3FE001FF000003FC0000
3FC000FF800003F80000
7FC000FF800007F00000
7F80007F80000FF00000
7F80007FC0000FE00000
FF80003FC0001FC00000
FF00003FC0003FC00000
FF00003FC0003F800000
FF00003FC0007F800000
FF00003FC000FF000000
FF00003FC000FE000000
FF00003FC001FE000000
FF00003FC001FC000000
FF00003FC003F8000000
FF00007FC007F8000000
FF80007F8007F0000000
7F80007F800FE0000000
7F8000FF801FE0000000
7FC000FF001FC0000000
3FE001FF003FC0000000
3FF003FE007F80000000
1FFC0FFE007F00000000
1FFFFFFC00FF00000000
0FFFFFF800FE00000000
07FFFFF001FC00000000
03FFFFE003FC00000000
01FFFFC003F800000000
007FFF0007F000000000
000FF8000FF000000000
000000000FE0007FC000
000000001FE003FFF800
000000003FC00FFFFE00
000000003F801FFFFF00
000000007F807FFFFF80
000000007F007FFFFFC0
00000000FE00FFFFFFE0
00000001FE01FFC0FFF0
00000001FC03FF003FF0
00000003FC03FE001FF0
00000007F803FC000FF8
00000007F007FC000FF8
0000000FF007F80007F8
0000000FE007F80007FC
0000001FC00FF80003FC
0000003FC00FF00003FC
0000003F800FF00003FC
0000007F000FF00003FC
000000FF000FF00003FC
000000FE000FF00003FC
000001FE000FF00003FC
000003FC000FF00003FC
000003F8000FF00003FC
000007F8000FF00007FC
000007F0000FF80007F8
00000FE00007F80007F8
00001FE00007F8000FF8
00001FC00007FC000FF0
00003F800003FE001FF0
00007F800003FF003FE0
00007F000001FFC0FFE0
0000FF000001FFFFFFC0
0001FE000000FFFFFF80
0001FC0000007FFFFF00
0003FC0000003FFFFE00
0003F80000001FFFFC00
0007F000000007FFF000
000FF000000000FF8000
ENDCHAR
STARTCHAR ampersand
ENCODING 38
SWIDTH 715 0
DWIDTH 75 0
BBX 69 76 5 -1
BITMAP
000000FFE000000000
000007FFFC00000000
00001FFFFF00000000
00007FFFFFC0000000
0001FFFFFFE0000000
0003FFFFFFF0000000
0007FFFFFFF8000000
000FFFFFFFFC000000
000FFFFFFFFE000000
001FFFC0FFFE000000
001FFF003FFE000000
003FFE001FFF000000
003FFC000FFF000000
007FF80007FF000000
007FF80007FF000000
007FF00007FF000000
007FF00007FF000000
007FF00007FF000000
007FF00007FF000000
007FF00007FF000000
007FF80007FF000000
003FF8000FFF000000
003FF8000FFE000000
003FFC001FFE000000
003FFE003FFC000000
001FFE007FFC000000
001FFF00FFF8000000
000FFF81FFF0000000
000FFFC7FFE0000000
0007FFFFFFC0000000
0003FFFFFF80000000
0003FFFFFF00000000
0001FFFFFC00000000
0000FFFFF800000000
00007FFFE000000000
0001FFFF8000000000
0007FFFF800007FF00
000FFFFFC00007FF00
003FFFFFE00007FF00
007FFFFFF00007FF00
00FFFFFFF80007FF00
01FFFDFFFC0007FF00
03FFF0FFFE0007FF00
07FFC07FFF0007FF00
0FFF803FFF800FFF00
1FFF001FFF800FFE00
1FFE000FFFC00FFE00
3FFC0007FFE01FFE00
3FFC0007FFF01FFC00
7FF80003FFF81FFC00
7FF80001FFFC3FFC00
7FF00000FFFE3FF800
FFF000007FFF7FF800
FFF000003FFFFFF000
FFF000001FFFFFF000
FFF000000FFFFFE000
FFF0000007FFFFC000
FFF0000003FFFFC000
FFF0000001FFFF8000
FFF8000000FFFF0000
FFF80000007FFF0000
7FFC0000007FFF8000
7FFE000001FFFF8000
7FFE000003FFFFC000
3FFF80000FFFFFE000
3FFFC0003FFFFFF000
1FFFF803FFFFFFF800
0FFFFFFFFFFFFFFC00
07FFFFFFFFFEFFFE00
07FFFFFFFFF87FFF00
01FFFFFFFFF03FFF80
00FFFFFFFFC01FFFC0
007FFFFFFF000FFFE0
001FFFFFFC0007FFF0
0003FFFFE00007FFF8
00003FFE0000000000
ENDCHAR
STARTCHAR quotesingle
ENCODING 39
SWIDTH 258 0
DWIDTH 27 0
BBX 9 23 9 51
BITMAP
FF80
FF80
FF80
FF80
FF80
FF80
FF80
FF80
FF80
FF80
FF80
FF80
FF80
FF80
FF80
FF80
FF80
FF80
FF80
FF80
FF80
FF80
FF80
ENDCHAR
STARTCHAR parenleft
ENCODING 40
SWIDTH 332 0
DWIDTH 35 0
BBX 26 91 8 -17
BITMAP
0000FFC0
0001FF80
0003FF00
0007FE00
000FFE00
000FFC00
001FF800
003FF800
003FF000
007FE000
007FE000
00FFC000
00FFC000
01FF8000
01FF8000
03FF0000
03FF0000
07FE0000
07FE0000
07FE0000
0FFC0000
0FFC0000
1FFC0000
1FF80000
1FF80000
1FF80000
3FF00000
3FF00000
3FF00000
3FF00000
7FE00000
7FE00000
7FE00000
7FE00000
7FE00000
7FE00000
FFE00000
FFC00000
FFC00000
FFC00000
FFC00000
FFC00000
FFC00000
FFC00000
FFC00000
FFC00000
FFC00000
FFC00000
FFC00000
FFC00000
FFC00000
FFC00000
FFC00000
FFC00000
FFC00000
7FE00000
7FE00000
7FE00000
7FE00000
7FE00000
7FE00000
7FF00000
3FF00000
3FF00000
3FF00000
3FF80000
1FF80000
1FF80000
1FF80000
0FFC0000
0FFC0000
0FFE0000
07FE0000
07FE0000
03FF0000
03FF0000
03FF8000
01FF8000
01FFC000
00FFC000
007FE000
007FE000
003FF000
003FF800
001FF800
000FFC00
000FFE00
0007FE00
0003FF00
0001FF80
0000FFC0
ENDCHAR
STARTCHAR parenright
ENCODING 41
SWIDTH 332 0
DWIDTH 35 0
BBX 27 91 1 -17
BITMAP
FFC00000
7FE00000
3FF00000
1FF80000
0FFC0000
0FFC0000
07FE0000
03FF0000
03FF8000
01FF8000
00FFC000
00FFC000
007FE000
007FE000
003FF000
003FF000
001FF800
001FF800
000FFC00
000FFC00
000FFE00
0007FE00
0007FE00
0003FF00
0003FF00
0003FF00
0003FF80
0001FF80
0001FF80
0001FF80
0001FF80
0000FFC0
0000FFC0
0000FFC0
0000FFC0
0000FFC0
0000FFC0
00007FE0
00007FE0
00007FE0
00007FE0
00007FE0
00007FE0
00007FE0
00007FE0
00007FE0
00007FE0
00007FE0
00007FE0
00007FE0
00007FE0
00007FE0
00007FE0
00007FE0
0000FFE0
0000FFC0
0000FFC0
0000FFC0
0000FFC0
0000FFC0
0001FFC0
0001FF80
0001FF80
0001FF80
0001FF80
0003FF00
0003FF00
0003FF00
0007FE00
0007FE00
0007FE00
000FFC00
000FFC00
001FFC00
001FF800
003FF800
003FF000
007FF000
007FE000
00FFE000
00FFC000
01FF8000
03FF8000
03FF0000
07FE0000
0FFE0000
0FFC0000
1FF80000
3FF00000
7FE00000
FFC00000
ENDCHAR
STARTCHAR asterisk
ENCODING 42
SWIDTH 434 0
DWIDTH 46 0
BBX 37 38 4 36
BITMAP
0003FE0000
0003FE0000
0003FE0000
0003FE0000
0003FE0000
0001FC0000
0001FC0000
0001FC0000
0001FC0000
0001FC0000
1001FC0040
3C01FC01E0
3F01FC07E0
3FE1FC3FE0
7FF9FCFFF0
7FFEFBFFF0
7FFFFFFFF0
FFFFFFFFF8
FFFFFFFFF8
1FFFFFFFC0
007FFFF000
0003FE0000
0007FF0000
000FFF8000
001FFFC000
003FDFE000
003FCFE000
007F8FF000
00FF07F800
01FF07FC00
03FE03FE00
07FE03FF00
0FFC01FF80
07FC01FF00
03F800FE00
00F8007800
0070007000
0020002000
ENDCHAR
STARTCHAR plus
ENCODING 43
SWIDTH 694 0
DWIDTH 73 0
BBX 48 48 12 7
BITMAP
00000FF00000
00000FF00000
00000FF00000
00000FF00000
00000FF00000
00000FF00000
00000FF00000
00000FF00000
00000FF00000
00000FF00000
00000FF00000
00000FF00000
00000FF00000
00000FF00000
00000FF00000
00000FF00000
00000FF00000
00000FF00000
00000FF00000
00000FF00000
FFFFFFFFFFFF
FFFFFFFFFFFF
FFFFFFFFFFFF
FFFFFFFFFFFF
FFFFFFFFFFFF
FFFFFFFFFFFF
FFFFFFFFFFFF
FFFFFFFFFFFF
00000FF00000
00000FF00000
00000FF00000
00000FF00000
00000FF00000
00000FF00000
00000FF00000
00000FF00000
00000FF00000
00000FF00000
00000FF00000
00000FF00000
00000FF00000
00000FF00000
00000FF00000
00000FF00000
00000FF00000
00000FF00000
00000FF00000
00000FF00000
ENDCHAR
STARTCHAR comma
ENCODING 44
SWIDTH 241 0
DWIDTH 25 0
BBX 17 26 2 -14
BITMAP
03FF80
07FF80
07FF00
07FF00
07FF00
0FFE00
0FFE00
0FFE00
0FFC00
0FFC00
1FFC00
1FF800
1FF800
1FF800
1FF800
3FF000
3FF000
3FF000
3FE000
7FE000
7FE000
7FC000
7FC000
7FC000
FF8000
FF8000
ENDCHAR
STARTCHAR hyphen
ENCODING 45
SWIDTH 401 0
DWIDTH 42 0
BBX 28 9 7 24
BITMAP
FFFFFFF0
FFFFFFF0
FFFFFFF0
FFFFFFF0
FFFFFFF0
FFFFFFF0
FFFFFFF0
FFFFFFF0
FFFFFFF0
ENDCHAR
STARTCHAR period
ENCODING 46
SWIDTH 241 0
DWIDTH 25 0
BBX 15 14 5 -1
BITMAP
07C0
1FF0
3FF8
7FFC
FFFE
FFFE
FFFE
FFFE
FFFE
FFFE
7FFC
3FF8
1FF0
07C0
ENDCHAR
STARTCHAR slash
ENCODING 47
SWIDTH 413 0
DWIDTH 43 0
BBX 46 86 -2 -12
BITMAP
000000001FFC
000000003FF8
000000003FF8
000000003FF8
000000007FF0
000000007FF0
00000000FFE0
00000000FFE0
00000000FFE0
00000001FFC0
00000001FFC0
00000003FF80
00000003FF80
00000003FF00
00000007FF00
00000007FF00
0000000FFE00
0000000FFE00
0000000FFC00
0000001FFC00
0000001FFC00
0000003FF800
0000003FF800
0000007FF000
0000007FF000
0000007FF000
000000FFE000
000000FFE000
000001FFC000
000001FFC000
000001FFC000
000003FF8000
000003FF8000
000007FF0000
000007FF0000
000007FE0000
00000FFE0000
00000FFE0000
00001FFC0000
00001FFC0000
00001FF80000
00003FF80000
00003FF80000
00007FF00000
00007FF00000
00007FE00000
0000FFE00000
0000FFE00000
0001FFC00000
0001FFC00000
0003FF800000
0003FF800000
0003FF000000
0007FF000000
0007FF000000
000FFE000000
000FFE000000
000FFC000000
001FFC000000
001FFC000000
003FF8000000
003FF8000000
003FF0000000
007FF0000000
007FF0000000
00FFE0000000
00FFE0000000
00FFC0000000
01FFC0000000
01FFC0000000
03FF80000000
03FF80000000
07FF00000000
07FF00000000
07FE00000000
0FFE00000000
0FFE00000000
1FFC00000000
1FFC00000000
1FF800000000
3FF800000000
3FF800000000
7FF000000000
7FF000000000
7FE000000000
FFE000000000
ENDCHAR
STARTCHAR zero
ENCODING 48
SWIDTH 555 0
DWIDTH 58 0
BBX 50 76 4 -1
BITMAP
000007FE000000
00007FFFE00000
0001FFFFF80000
0007FFFFFC0000
000FFFFFFF0000
003FFFFFFF8000
007FFFFFFFC000
007FFFFFFFE000
00FFFFFFFFE000
01FFFC0FFFF000
03FFF003FFF800
03FFE000FFF800
07FFC0007FFC00
07FF80007FFC00
0FFF00003FFE00
0FFF00003FFE00
1FFE00001FFE00
1FFE00001FFF00
1FFE00000FFF00
3FFC00000FFF00
3FFC00000FFF00
3FFC00000FFF80
3FF8000007FF80
7FF8000007FF80
7FF8000007FF80
7FF8000007FF80
7FF8000007FF80
7FF8000007FF80
7FF0000003FFC0
FFF0000003FFC0
FFF0000003FFC0
FFF0000003FFC0
FFF0000003FFC0
FFF0000003FFC0
FFF0000003FFC0
FFF0000003FFC0
FFF0000003FFC0
FFF0000003FFC0
FFF0000003FFC0
FFF0000003FFC0
FFF0000003FFC0
FFF0000003FFC0
FFF0000003FFC0
FFF0000003FFC0
FFF0000003FFC0
FFF0000003FFC0
FFF0000003FFC0
FFF0000003FF80
FFF0000007FF80
7FF8000007FF80
7FF8000007FF80
7FF8000007FF80
7FF8000007FF80
7FF8000007FF00
7FF800000FFF00
3FFC00000FFF00
3FFC00000FFF00
3FFC00000FFE00
1FFE00001FFE00
1FFE00001FFE00
1FFF00003FFC00
0FFF00003FFC00
0FFF80007FF800
07FF80007FF800
07FFC000FFF000
03FFF003FFF000
03FFFC0FFFE000
01FFFFFFFFC000
00FFFFFFFF8000
007FFFFFFF8000
003FFFFFFE0000
001FFFFFFC0000
000FFFFFF80000
0003FFFFE00000
0000FFFF800000
00001FFC000000
ENDCHAR
STARTCHAR one
ENCODING 49
SWIDTH 402 0
DWIDTH 42 0
BBX 28 75 4 0
BITMAP
000003F0
000007F0
00001FF0
00007FF0
0000FFF0
0003FFF0
000FFFF0
003FFFF0
01FFFFF0
0FFFFFF0
3FFFFFF0
FFFFFFF0
FFFFFFF0
FFFFFFF0
FFFFFFF0
FFFCFFF0
FFF0FFF0
FFC0FFF0
FF00FFF0
F800FFF0
C000FFF0
0000FFF0
0000FFF0
0000FFF0
0000FFF0
0000FFF0
0000FFF0
0000FFF0
0000FFF0
0000FFF0
0000FFF0
0000FFF0
0000FFF0
0000FFF0
0000FFF0
0000FFF0
0000FFF0
0000FFF0
0000FFF0
0000FFF0
0000FFF0
0000FFF0
0000FFF0
0000FFF0
0000FFF0
0000FFF0
0000FFF0
0000FFF0
0000FFF0
0000FFF0
0000FFF0
0000FFF0
0000FFF0
0000FFF0
0000FFF0
0000FFF0
0000FFF0
0000FFF0
0000FFF0
0000FFF0
0000FFF0
0000FFF0
0000FFF0
0000FFF0
0000FFF0
0000FFF0
0000FFF0
0000FFF0
0000FFF0
0000FFF0
0000FFF0
0000FFF0
0000FFF0
0000FFF0
0000FFF0
ENDCHAR
STARTCHAR two
ENCODING 50
SWIDTH 555 0
DWIDTH 58 0
BBX 46 75 5 0
BITMAP
00007FF80000
0007FFFF8000
003FFFFFE000
00FFFFFFF800
03FFFFFFFC00
07FFFFFFFE00
1FFFFFFFFF00
1FFFFFFFFF80
1FFFFFFFFFC0
1FFF807FFFC0
1FFC001FFFE0
1FF00007FFE0
1FC00003FFF0
1F000001FFF0
1E000001FFF0
1C000000FFF8
18000000FFF8
100000007FF8
000000007FF8
000000007FF8
000000007FF8
000000007FF8
000000007FF8
000000007FF8
000000007FF8
000000007FF8
00000000FFF0
00000000FFF0
00000001FFF0
00000001FFE0
00000003FFE0
00000003FFE0
00000007FFC0
0000000FFFC0
0000001FFF80
0000003FFF00
0000007FFF00
000000FFFE00
000001FFFC00
000003FFF800
00000FFFF000
00001FFFE000
00003FFFC000
00007FFF8000
0000FFFF0000
0003FFFC0000
0007FFF80000
000FFFF00000
001FFFE00000
003FFF800000
007FFF000000
00FFFE000000
01FFFC000000
03FFF0000000
07FFE0000000
07FFC0000000
0FFF80000000
1FFF00000000
1FFE00000000
3FFC00000000
3FF800000000
7FF800000000
7FF000000000
7FF000000000
7FF000000000
FFFFFFFFFFFC
FFFFFFFFFFFC
FFFFFFFFFFFC
FFFFFFFFFFFC
FFFFFFFFFFFC
FFFFFFFFFFFC
FFFFFFFFFFFC
FFFFFFFFFFFC
FFFFFFFFFFFC
FFFFFFFFFFFC
ENDCHAR
STARTCHAR three
ENCODING 51
SWIDTH 555 0
DWIDTH 58 0
BBX 45 76 6 -1
BITMAP
0003FFE00000
003FFFFE0000
01FFFFFF8000
0FFFFFFFE000
1FFFFFFFF800
1FFFFFFFFC00
1FFFFFFFFE00
1FFFFFFFFF00
1FFFFFFFFF00
1FF803FFFF80
1FC0007FFFC0
1F00001FFFC0
1C00000FFFC0
18000007FFE0
00000003FFE0
00000003FFE0
00000001FFE0
00000001FFE0
00000001FFE0
00000001FFE0
00000001FFE0
00000001FFE0
00000001FFC0
00000001FFC0
00000003FFC0
00000003FF80
00000007FF80
0000000FFF00
0000001FFF00
0000003FFE00
000000FFFC00
00000FFFF800
00FFFFFFF000
00FFFFFFC000
00FFFFFF0000
00FFFFF80000
00FFFFFE0000
00FFFFFFC000
00FFFFFFF000
00FFFFFFFC00
00FFFFFFFE00
00000FFFFF00
000000FFFF80
0000001FFFC0
0000000FFFE0
00000003FFE0
00000001FFF0
00000001FFF0
00000000FFF0
00000000FFF8
000000007FF8
000000007FF8
000000007FF8
000000007FF8
000000007FF8
000000007FF8
000000007FF8
000000007FF8
00000000FFF8
00000000FFF0
00000001FFF0
80000001FFF0
C0000003FFE0
F0000007FFE0
FC00001FFFC0
FF00007FFFC0
FFF003FFFF80
FFFFFFFFFF00
FFFFFFFFFE00
FFFFFFFFFC00
FFFFFFFFF800
FFFFFFFFE000
7FFFFFFFC000
1FFFFFFE0000
03FFFFF80000
003FFF000000
ENDCHAR
STARTCHAR four
ENCODING 52
SWIDTH 576 0
DWIDTH 61 0
BBX 56 74 3 0
BITMAP
000000007FF800
00000000FFF800
00000000FFF800
00000001FFF800
00000001FFF800
00000003FFF800
00000003FFF800
00000007FFF800
00000007FFF800
0000000FFFF800
0000001FFFF800
0000001FFFF800
0000003FFFF800
0000003FFFF800
0000007FFFF800
000000FFFFF800
000000FFFFF800
000001FFFFF800
000001FF7FF800
000003FE7FF800
000007FE7FF800
000007FC7FF800
00000FFC7FF800
00001FF87FF800
00003FF87FF800
00003FF07FF800
00007FE07FF800
0000FFE07FF800
0000FFC07FF800
0001FF807FF800
0003FF807FF800
0007FF007FF800
0007FF007FF800
000FFE007FF800
001FFC007FF800
003FF8007FF800
003FF8007FF800
007FF0007FF800
00FFE0007FF800
01FFC0007FF800
03FFC0007FF800
07FF80007FF800
07FF00007FF800
0FFE00007FF800
1FFE00007FF800
3FFC00007FF800
7FF800007FF800
FFF000007FF800
FFFFFFFFFFFFFF
FFFFFFFFFFFFFF
FFFFFFFFFFFFFF
FFFFFFFFFFFFFF
FFFFFFFFFFFFFF
FFFFFFFFFFFFFF
FFFFFFFFFFFFFF
FFFFFFFFFFFFFF
FFFFFFFFFFFFFF
FFFFFFFFFFFFFF
000000007FF800
000000007FF800
000000007FF800
000000007FF800
000000007FF800
000000007FF800
000000007FF800
000000007FF800
000000007FF800
000000007FF800
000000007FF800
000000007FF800
000000007FF800
000000007FF800
000000007FF800
000000007FF800
ENDCHAR
STARTCHAR five
ENCODING 53
SWIDTH 555 0
DWIDTH 58 0
BBX 43 75 8 -1
BITMAP
0FFFFFFFFF00
0FFFFFFFFF00
1FFFFFFFFF00
1FFFFFFFFF00
1FFFFFFFFF00
1FFFFFFFFF00
1FFFFFFFFF00
1FFFFFFFFF00
1FFFFFFFFF00
1FFFFFFFFF00
1FFC00000000
1FFC00000000
1FFC00000000
1FFC00000000
1FFC00000000
1FFC00000000
3FFC00000000
3FFC00000000
3FFC00000000
3FFC00000000
3FFC00000000
3FF800000000
3FF800000000
3FF800000000
3FF800000000
3FF800000000
3FF800000000
3FF800000000
3FFFFF800000
3FFFFFF80000
7FFFFFFF0000
7FFFFFFFC000
7FFFFFFFE000
7FFFFFFFF000
7FFFFFFFF800
7FFFFFFFFC00
7FFFFFFFFE00
60001FFFFF00
000003FFFF00
0000007FFF80
0000003FFF80
0000001FFFC0
0000000FFFC0
00000007FFC0
00000007FFC0
00000003FFE0
00000003FFE0
00000001FFE0
00000001FFE0
00000001FFE0
00000001FFE0
00000001FFE0
00000001FFE0
00000001FFE0
00000001FFE0
00000003FFE0
00000003FFC0
00000003FFC0
00000007FFC0
00000007FFC0
0000000FFF80
C000001FFF80
E000003FFF00
F80000FFFF00
FE0003FFFE00
FFC01FFFFC00
FFFFFFFFFC00
FFFFFFFFF800
FFFFFFFFF000
FFFFFFFFC000
FFFFFFFF8000
FFFFFFFE0000
7FFFFFF80000
0FFFFFE00000
00FFFE000000
ENDCHAR
STARTCHAR six
ENCODING 54
SWIDTH 558 0
DWIDTH 59 0
BBX 50 76 5 -1
BITMAP
0000003FFE0000
000003FFFFF000
00000FFFFFF800
00003FFFFFF800
0000FFFFFFF800
0001FFFFFFF800
0007FFFFFFF800
000FFFFFFFF800
001FFFFFFFF800
003FFFF007F800
003FFF8000F800
007FFE00001800
00FFF800000000
01FFF000000000
01FFE000000000
03FFC000000000
03FF8000000000
07FF8000000000
07FF0000000000
0FFF0000000000
0FFE0000000000
1FFE0000000000
1FFC0000000000
1FFC0000000000
3FFC0000000000
3FF80000000000
3FF80000000000
3FF80000000000
7FF801FFC00000
7FF00FFFF80000
7FF03FFFFE0000
7FF07FFFFF8000
7FF1FFFFFFC000
FFF3FFFFFFF000
FFF7FFFFFFF800
FFF7FFFFFFF800
FFFFFFFFFFFC00
FFFFF807FFFE00
FFFFE000FFFE00
FFFF80007FFF00
FFFF00003FFF00
FFFE00001FFF80
FFFC00000FFF80
FFFC00000FFF80
FFF8000007FF80
FFF8000007FFC0
FFF8000007FFC0
FFF0000003FFC0
FFF0000003FFC0
FFF0000003FFC0
FFF0000003FFC0
7FF0000003FFC0
7FF0000003FFC0
7FF0000003FFC0
7FF0000003FFC0
7FF8000003FFC0
3FF8000003FF80
3FF8000007FF80
3FFC000007FF80
1FFC000007FF80
1FFE00000FFF00
0FFE00000FFF00
0FFF00001FFF00
07FF80003FFE00
07FFC0007FFC00
03FFE001FFFC00
03FFFC07FFF800
01FFFFFFFFF000
00FFFFFFFFE000
007FFFFFFFE000
003FFFFFFF8000
001FFFFFFF0000
0007FFFFFE0000
0003FFFFF80000
00007FFFC00000
00000FFE000000
ENDCHAR
STARTCHAR seven
ENCODING 55
SWIDTH 536 0
DWIDTH 56 0
BBX 49 74 4 0
BITMAP
FFFFFFFFFFFF80
FFFFFFFFFFFF80
FFFFFFFFFFFF80
FFFFFFFFFFFF80
FFFFFFFFFFFF80
FFFFFFFFFFFF80
FFFFFFFFFFFF80
FFFFFFFFFFFF00
FFFFFFFFFFFF00
FFFFFFFFFFFE00
000000001FFE00
000000003FFC00
000000003FF800
000000007FF800
000000007FF000
00000000FFF000
00000000FFE000
00000001FFE000
00000001FFC000
00000003FFC000
00000003FF8000
00000007FF8000
00000007FF0000
0000000FFF0000
0000000FFE0000
0000001FFE0000
0000001FFC0000
0000003FFC0000
0000003FFC0000
0000007FF80000
0000007FF80000
000000FFF00000
000000FFF00000
000001FFE00000
000001FFE00000
000001FFE00000
000003FFC00000
000003FFC00000
000007FF800000
000007FF800000
000007FF800000
00000FFF000000
00000FFF000000
00001FFE000000
00001FFE000000
00001FFE000000
00003FFC000000
00003FFC000000
00003FFC000000
00007FF8000000
00007FF8000000
00007FF8000000
0000FFF0000000
0000FFF0000000
0000FFF0000000
0001FFE0000000
0001FFE0000000
0001FFE0000000
0003FFE0000000
0003FFC0000000
0003FFC0000000
0003FFC0000000
0007FFC0000000
0007FF80000000
0007FF80000000
0007FF80000000
000FFF80000000
000FFF80000000
000FFF00000000
000FFF00000000
000FFF00000000
001FFF00000000
001FFF00000000
001FFE00000000
ENDCHAR
STARTCHAR eight
ENCODING 56
SWIDTH 555 0
DWIDTH 58 0
BBX 49 76 5 -1
BITMAP
00001FF8000000
0001FFFF800000
0007FFFFE00000
001FFFFFF80000
007FFFFFFE0000
00FFFFFFFF0000
01FFFFFFFF8000
03FFFFFFFFC000
07FFFFFFFFE000
07FFF81FFFE000
0FFFE007FFF000
0FFF8003FFF000
1FFF8001FFF800
1FFF0000FFF800
3FFE00007FF800
3FFE00007FFC00
3FFC00003FFC00
3FFC00003FFC00
3FFC00003FFC00
3FFC00003FFC00
3FFC00003FFC00
3FFC00003FFC00
3FFC00003FFC00
1FFC00007FF800
1FFE00007FF800
1FFE00007FF800
0FFF0000FFF000
0FFF8001FFF000
07FFC003FFE000
03FFE007FFC000
01FFF81FFF8000
00FFFFFFFF0000
007FFFFFFE0000
003FFFFFFC0000
000FFFFFF00000
000FFFFFF00000
003FFFFFFC0000
00FFFFFFFF0000
01FFFFFFFF8000
03FFFFFFFFC000
07FFF80FFFF000
0FFFC003FFF000
1FFF8000FFF800
1FFF00007FFC00
3FFE00003FFE00
3FFC00001FFE00
7FFC00001FFE00
7FF800000FFF00
7FF800000FFF00
FFF000000FFF00
FFF0000007FF80
FFF0000007FF80
FFF0000007FF80
FFF0000007FF80
FFF0000007FF80
FFF0000007FF80
FFF0000007FF80
FFF0000007FF80
FFF800000FFF80
7FF800000FFF00
7FF800001FFF00
7FFC00001FFF00
7FFE00003FFE00
3FFF00007FFE00
3FFF8000FFFE00
1FFFC001FFFC00
0FFFF80FFFF800
0FFFFFFFFFF800
07FFFFFFFFF000
03FFFFFFFFE000
01FFFFFFFFC000
007FFFFFFF0000
003FFFFFFE0000
000FFFFFF80000
0001FFFFC00000
00001FFC000000
ENDCHAR
STARTCHAR nine
ENCODING 57
SWIDTH 558 0
DWIDTH 59 0
BBX 50 76 4 -1
BITMAP
00000FFC000000
0000FFFFC00000
0007FFFFF00000
000FFFFFFC0000
003FFFFFFE0000
007FFFFFFF0000
00FFFFFFFF8000
01FFFFFFFFC000
03FFFFFFFFE000
07FFF80FFFF000
0FFFE003FFF800
1FFF8000FFF800
1FFF00007FFC00
3FFE00003FFC00
3FFE00001FFE00
3FFC00001FFE00
7FFC00000FFE00
7FF800000FFF00
7FF8000007FF00
FFF0000007FF00
FFF0000007FF80
FFF0000003FF80
FFF0000003FF80
FFF0000003FF80
FFF0000003FF80
FFF0000003FFC0
FFF0000003FFC0
FFF0000003FFC0
FFF0000003FFC0
FFF8000003FFC0
FFF8000007FFC0
7FF8000007FFC0
7FFC00000FFFC0
7FFE00000FFFC0
3FFE00001FFFC0
3FFF00003FFFC0
1FFF80007FFFC0
1FFFE001FFFFC0
0FFFFC07FFFFC0
0FFFFFFFFFFFC0
07FFFFFFFBFFC0
03FFFFFFFBFFC0
01FFFFFFF3FFC0
00FFFFFFE3FF80
003FFFFF83FF80
001FFFFF03FF80
0003FFFC03FF80
00007FE007FF80
0000000007FF80
0000000007FF00
0000000007FF00
0000000007FF00
000000000FFF00
000000000FFE00
000000000FFE00
000000001FFE00
000000001FFC00
000000003FFC00
000000003FFC00
000000007FF800
00000000FFF800
00000001FFF000
00000003FFE000
0C000007FFE000
0E00000FFFC000
0FC0003FFF8000
0FFC01FFFF0000
0FFFFFFFFF0000
0FFFFFFFFE0000
0FFFFFFFF80000
0FFFFFFFF00000
0FFFFFFFE00000
0FFFFFFF800000
07FFFFFE000000
00FFFFF0000000
0007FF00000000
ENDCHAR
STARTCHAR colon
ENCODING 58
SWIDTH 241 0
DWIDTH 25 0
BBX 15 55 5 -1
BITMAP
07C0
1FF0
3FF8
7FFC
FFFE
FFFE
FFFE
FFFE
FFFE
FFFE
7FFC
3FF8
1FF0
07C0
0000
0000
0000
0000
0000
0000
0000
0000
0000
0000
0000
0000
0000
0000
0000
0000
0000
0000
0000
0000
0000
0000
0000
0000
0000
0000
0000
07C0
1FF0
3FF8
7FFC
FFFE
FFFE
FFFE
FFFE
FFFE
FFFE
7FFC
3FF8
1FF0
07C0
ENDCHAR
STARTCHAR semicolon
ENCODING 59
SWIDTH 241 0
DWIDTH 25 0
BBX 18 68 2 -14
BITMAP
00F800
03FE00
07FF00
0FFF80
1FFFC0
1FFFC0
1FFFC0
1FFFC0
1FFFC0
1FFF80
0FFF80
07FF00
03FE00
00F800
000000
000000
000000
000000
000000
000000
000000
000000
000000
000000
000000
000000
000000
000000
000000
000000
000000
000000
000000
000000
000000
000000
000000
000000
000000
000000
000000
000000
03FF80
07FF80
07FF00
07FF00
07FF00
0FFE00
0FFE00
0FFE00
0FFC00
0FFC00
1FFC00
1FFC00
1FF800
1FF800
3FF800
3FF000
3FF000
3FF000
3FE000
7FE000
7FE000
7FE000
7FC000
7FC000
FFC000
FF8000
ENDCHAR
STARTCHAR less
ENCODING 60
SWIDTH 694 0
DWIDTH 73 0
BBX 45 51 14 5
BITMAP
000000000008
000000000038
0000000000F8
0000000003F8
000000000FF8
000000001FF8
000000007FF8
00000001FFF8
00000007FFF8
0000001FFFF8
0000007FFFE0
000001FFFF80
000007FFFE00
00001FFFF800
00003FFFE000
0000FFFF8000
0003FFFF0000
000FFFFC0000
003FFFF00000
00FFFFC00000
03FFFF000000
0FFFFC000000
3FFFF0000000
FFFFC0000000
FFFF00000000
FFFC00000000
FFF800000000
FFFE00000000
FFFF80000000
7FFFE0000000
1FFFF8000000
07FFFE000000
01FFFFC00000
007FFFF00000
001FFFFC0000
0007FFFF0000
0001FFFFC000
00007FFFF800
00001FFFFE00
000007FFFF80
000001FFFFE0
0000007FFFF8
0000001FFFF8
00000003FFF8
00000000FFF8
000000003FF8
000000000FF8
0000000003F8
0000000000F8
000000000038
000000000008
ENDCHAR
STARTCHAR equal
ENCODING 61
SWIDTH 694 0
DWIDTH 73 0
BBX 49 30 12 16
BITMAP
FFFFFFFFFFFF80
FFFFFFFFFFFF80
FFFFFFFFFFFF80
FFFFFFFFFFFF80
FFFFFFFFFFFF80
FFFFFFFFFFFF80
FFFFFFFFFFFF80
FFFFFFFFFFFF80
00000000000000
00000000000000
00000000000000
00000000000000
00000000000000
00000000000000
00000000000000
00000000000000
00000000000000
00000000000000
00000000000000
00000000000000
00000000000000
00000000000000
FFFFFFFFFFFF80
FFFFFFFFFFFF80
FFFFFFFFFFFF80
FFFFFFFFFFFF80
FFFFFFFFFFFF80
FFFFFFFFFFFF80
FFFFFFFFFFFF80
FFFFFFFFFFFF80
ENDCHAR
STARTCHAR greater
ENCODING 62
SWIDTH 694 0
DWIDTH 73 0
BBX 45 51 14 5
BITMAP
800000000000
E00000000000
F80000000000
FE0000000000
FF8000000000
FFC000000000
FFF000000000
FFFC00000000
FFFF00000000
FFFFC0000000
3FFFF0000000
0FFFFC000000
03FFFF000000
00FFFFC00000
003FFFF00000
001FFFF80000
0007FFFE0000
0001FFFF8000
00007FFFE000
00001FFFF800
000007FFFE00
000001FFFF80
0000007FFFE0
0000001FFFF8
00000007FFF8
00000001FFF8
000000007FF8
00000001FFF8
0000000FFFF8
0000003FFFF0
000000FFFFC0
000003FFFF00
00000FFFFC00
00007FFFF000
0001FFFFC000
0007FFFF0000
001FFFFC0000
00FFFFF00000
03FFFFC00000
0FFFFF000000
3FFFFC000000
FFFFF0000000
FFFFC0000000
FFFE00000000
FFF800000000
FFE000000000
FF8000000000
FE0000000000
F80000000000
E00000000000
800000000000
ENDCHAR
STARTCHAR question
ENCODING 63
SWIDTH 443 0
DWIDTH 47 0
BBX 38 76 5 -1
BITMAP
000FFE0000
00FFFFE000
07FFFFF800
3FFFFFFE00
FFFFFFFF00
FFFFFFFF80
FFFFFFFFC0
FFFFFFFFE0
FFFFFFFFF0
FFE03FFFF0
FF0007FFF8
FC0001FFF8
F00000FFF8
E000007FFC
C000007FFC
8000003FFC
0000003FFC
0000003FFC
0000003FFC
0000003FFC
0000003FFC
0000007FF8
0000007FF8
0000007FF8
000000FFF0
000001FFF0
000003FFE0
000007FFE0
000007FFC0
00000FFF80
00003FFF00
00007FFF00
0000FFFE00
0001FFFC00
0001FFF000
0003FFE000
0007FFC000
000FFF8000
001FFF0000
001FFE0000
003FFC0000
003FFC0000
003FF80000
007FF80000
007FF00000
007FF00000
007FF00000
007FF00000
007FF00000
007FF00000
007FF00000
003FF80000
003FF80000
003FF80000
0000000000
0000000000
0000000000
0000000000
0000000000
0000000000
0000000000
0000000000
0003E00000
000FF80000
001FFC0000
003FFE0000
007FFF0000
007FFF0000
007FFF0000
007FFF0000
007FFF0000
007FFF0000
003FFE0000
001FFC0000
000FF80000
0003E00000
ENDCHAR
STARTCHAR at
ENCODING 64
SWIDTH 954 0
DWIDTH 100 0
BBX 84 85 8 -10
BITMAP
000000000FFFE000000000
00000001FFFFFF00000000
0000000FFFFFFFE0000000
0000007FFFFFFFFC000000
000001FFFFFFFFFF000000
000007FFFFFFFFFFC00000
00001FFFFFFFFFFFE00000
00003FFFF8007FFFF80000
00007FFF000003FFFC0000
0001FFFC0000007FFE0000
0003FFE00000001FFF0000
0007FFC000000007FFC000
000FFF0000000001FFC000
001FFE0000000000FFE000
003FFC00000000007FF000
007FF800000000003FF800
007FE000000000001FFC00
00FFE000000000000FFC00
01FFC0000000000007FE00
01FF800007F8000003FF00
03FF00003FFF07F803FF00
07FE0000FFFF87F801FF80
07FE0001FFFFC7F801FF80
0FFC0003FFFFEFF800FF80
0FF80007FFFFEFF800FFC0
1FF8000FFFFFFFF8007FC0
1FF0001FFF03FFF8007FC0
1FF0003FFC00FFF8007FE0
3FF0003FF0007FF8003FE0
3FE0007FE0007FF8003FE0
3FE000FFC0003FF0003FE0
7FE000FFC0003FF0003FF0
7FC000FF80001FF0001FF0
7FC001FF80001FF0001FF0
7FC001FF00001FF0001FF0
7FC003FF00001FF0001FF0
FFC003FE00001FF0001FF0
FF8003FE00001FF0001FF0
FF8003FE00001FF0001FF0
FF8003FE00001FF0001FF0
FF8007FC00001FF0001FF0
FF8007FC00001FF0001FF0
FF8007FC00001FE0001FF0
FF8007FC00001FE0001FF0
FF8007FC00003FE0001FE0
FF8007FC00003FE0003FE0
FF8007FC00003FE0003FE0
FF8007FC00003FE0003FE0
FF8007FC00007FE0003FE0
FF8007FC00007FE0007FC0
FF8007FC00007FE0007FC0
7FC007FE0000FFE0007FC0
7FC003FE0000FFE000FF80
7FC003FE0001FFE000FF80
7FC003FF0001FFF001FF00
7FE003FF0003DFF003FF00
3FE001FF8007DFF003FE00
3FE001FFC00FDFF80FFC00
3FF000FFF03F9FFC1FF800
3FF000FFFFFF0FFFFFF800
1FF8007FFFFF0FFFFFF000
1FF8003FFFFE07FFFFE000
0FFC001FFFFC07FFFF8000
0FFC000FFFF803FFFF0000
07FE0003FFE000FFFC0000
07FF0000FF80003FE00000
03FF000000000000000000
03FF800000000000000000
01FFC00000000000000000
00FFE00000000000000000
007FF00000000000000000
007FFC0000000000000000
003FFE0000000000000000
001FFF8000000000000000
000FFFC000000001000000
0007FFF80000000F000000
0001FFFF0000007F000000
0000FFFFF0001FFF000000
00007FFFFFFFFFFF000000
00001FFFFFFFFFFF000000
000007FFFFFFFFFF000000
000001FFFFFFFFFF000000
0000003FFFFFFFF8000000
00000007FFFFFF80000000
000000003FFFE000000000
ENDCHAR
STARTCHAR A
ENCODING 65
SWIDTH 671 0
DWIDTH 71 0
BBX 69 74 1 0
BITMAP
0000001FFFC0000000
0000001FFFC0000000
0000001FFFC0000000
0000003FFFE0000000
0000003FFFE0000000
0000003FFFF0000000
0000007FFFF0000000
0000007FFFF0000000
000000FFFFF8000000
000000FFFFF8000000
000000FFFFF8000000
000001FFFFFC000000
000001FFDFFC000000
000001FFDFFE000000
000003FF9FFE000000
000003FF9FFE000000
000007FF8FFF000000
000007FF8FFF000000
000007FF0FFF000000
00000FFF07FF800000
00000FFE07FF800000
00000FFE07FFC00000
00001FFE03FFC00000
00001FFC03FFC00000
00001FFC03FFE00000
00003FFC01FFE00000
00003FF801FFE00000
00007FF801FFF00000
00007FF800FFF00000
00007FF000FFF00000
0000FFF000FFF80000
0000FFF0007FF80000
0000FFE0007FFC0000
0001FFE0007FFC0000
0001FFE0003FFC0000
0003FFC0003FFE0000
0003FFC0003FFE0000
0003FF80001FFE0000
0007FF80001FFF0000
0007FF80001FFF0000
0007FF00000FFF8000
000FFF00000FFF8000
000FFF00000FFF8000
001FFE000007FFC000
001FFE000007FFC000
001FFFFFFFFFFFC000
003FFFFFFFFFFFE000
003FFFFFFFFFFFE000
003FFFFFFFFFFFF000
007FFFFFFFFFFFF000
007FFFFFFFFFFFF000
00FFFFFFFFFFFFF800
00FFFFFFFFFFFFF800
00FFFFFFFFFFFFF800
01FFFFFFFFFFFFFC00
01FFE00000007FFC00
01FFE00000007FFE00
03FFE00000007FFE00
03FFC00000003FFE00
07FFC00000003FFF00
07FFC00000003FFF00
07FF800000001FFF00
0FFF800000001FFF80
0FFF800000001FFF80
0FFF000000000FFF80
1FFF000000000FFFC0
1FFF000000000FFFC0
3FFE0000000007FFE0
3FFE0000000007FFE0
3FFE0000000007FFE0
7FFC0000000003FFF0
7FFC0000000003FFF0
7FFC0000000003FFF0
FFF80000000001FFF8
ENDCHAR
STARTCHAR B
ENCODING 66
SWIDTH 604 0
DWIDTH 63 0
BBX 49 74 9 0
BITMAP
FFFFFFF8000000
FFFFFFFFC00000
FFFFFFFFF00000
FFFFFFFFFC0000
FFFFFFFFFF0000
FFFFFFFFFF8000
FFFFFFFFFFC000
FFFFFFFFFFE000
FFFFFFFFFFE000
FFFFFFFFFFF000
FFF0003FFFF800
FFF0000FFFF800
FFF00003FFF800
FFF00001FFFC00
FFF00000FFFC00
FFF00000FFFC00
FFF000007FFC00
FFF000007FFC00
FFF000007FFC00
FFF000007FFC00
FFF000007FFC00
FFF000007FF800
FFF000007FF800
FFF00000FFF800
FFF00000FFF000
FFF00000FFF000
FFF00001FFE000
FFF00003FFE000
FFF00007FFC000
FFF0001FFF8000
FFF000FFFF0000
FFFFFFFFFE0000
FFFFFFFFF80000
FFFFFFFFE00000
FFFFFFFF800000
FFFFFFFFF00000
FFFFFFFFFE0000
FFFFFFFFFF8000
FFFFFFFFFFC000
FFFFFFFFFFF000
FFFFFFFFFFF800
FFF0003FFFF800
FFF00003FFFC00
FFF00000FFFE00
FFF000007FFE00
FFF000003FFF00
FFF000001FFF00
FFF000001FFF00
FFF000001FFF80
FFF000000FFF80
FFF000000FFF80
FFF000000FFF80
FFF000000FFF80
FFF000000FFF80
FFF000000FFF80
FFF000000FFF80
FFF000001FFF80
FFF000001FFF00
FFF000003FFF00
FFF000003FFF00
FFF000007FFF00
FFF00000FFFE00
FFF00003FFFE00
FFF0001FFFFC00
FFFFFFFFFFF800
FFFFFFFFFFF000
FFFFFFFFFFE000
FFFFFFFFFFC000
FFFFFFFFFF8000
FFFFFFFFFF0000
FFFFFFFFFC0000
FFFFFFFFF00000
FFFFFFFF800000
FFFFFFF8000000
ENDCHAR
STARTCHAR C
ENCODING 67
SWIDTH 621 0
DWIDTH 65 0
BBX 56 76 4 -1
BITMAP
00000000FFFC00
0000001FFFFFF0
000000FFFFFFFE
000007FFFFFFFF
00001FFFFFFFFF
00003FFFFFFFFF
0000FFFFFFFFFF
0001FFFFFFFFFF
0007FFFFFFFFFF
000FFFFFFFFFFF
001FFFFFFFFFFF
003FFFFFC003FF
007FFFFC00003F
00FFFFE0000007
00FFFFC0000001
01FFFF00000000
03FFFE00000000
03FFF800000000
07FFF000000000
0FFFE000000000
0FFFE000000000
1FFFC000000000
1FFF8000000000
1FFF8000000000
3FFF0000000000
3FFF0000000000
3FFE0000000000
7FFE0000000000
7FFC0000000000
7FFC0000000000
7FFC0000000000
7FFC0000000000
FFF80000000000
FFF80000000000
FFF80000000000
FFF80000000000
FFF80000000000
FFF80000000000
FFF80000000000
FFF80000000000
FFF80000000000
FFF80000000000
FFF80000000000
FFF80000000000
FFF80000000000
FFFC0000000000
FFFC0000000000
7FFC0000000000
7FFC0000000000
7FFE0000000000
7FFE0000000000
3FFF0000000000
3FFF0000000000
3FFF8000000000
3FFF8000000000
1FFFC000000000
1FFFE000000000
0FFFF000000000
0FFFF800000000
07FFFC00000000
07FFFE00000001
03FFFF00000007
01FFFFC000001F
00FFFFF800007F
00FFFFFF000FFF
007FFFFFFFFFFF
003FFFFFFFFFFF
001FFFFFFFFFFF
000FFFFFFFFFFF
0003FFFFFFFFFF
0001FFFFFFFFFF
00007FFFFFFFFF
00001FFFFFFFFC
000007FFFFFFF0
000000FFFFFF00
00000007FFE000
ENDCHAR
STARTCHAR D
ENCODING 68
SWIDTH 717 0
DWIDTH 75 0
BBX 62 74 9 0
BITMAP
FFFFFFFC00000000
FFFFFFFFF0000000
FFFFFFFFFF000000
FFFFFFFFFFE00000
FFFFFFFFFFF80000
FFFFFFFFFFFE0000
FFFFFFFFFFFF8000
FFFFFFFFFFFFC000
FFFFFFFFFFFFE000
FFFFFFFFFFFFF000
FFFFFFFFFFFFF800
FFF00007FFFFFC00
FFF000003FFFFE00
FFF000000FFFFF00
FFF0000003FFFF80
FFF0000000FFFF80
FFF00000007FFFC0
FFF00000003FFFC0
FFF00000001FFFE0
FFF00000000FFFE0
FFF000000007FFF0
FFF000000003FFF0
FFF000000003FFF0
FFF000000001FFF0
FFF000000001FFF8
FFF000000001FFF8
FFF000000000FFF8
FFF000000000FFF8
FFF000000000FFF8
FFF000000000FFFC
FFF0000000007FFC
FFF0000000007FFC
FFF0000000007FFC
FFF0000000007FFC
FFF0000000007FFC
FFF0000000007FFC
FFF0000000007FFC
FFF0000000007FFC
FFF0000000007FFC
FFF0000000007FFC
FFF0000000007FFC
FFF0000000007FFC
FFF0000000007FFC
FFF000000000FFF8
FFF000000000FFF8
FFF000000000FFF8
FFF000000000FFF8
FFF000000001FFF8
FFF000000001FFF0
FFF000000003FFF0
FFF000000003FFF0
FFF000000007FFE0
FFF000000007FFE0
FFF00000000FFFC0
FFF00000001FFFC0
FFF00000003FFF80
FFF00000007FFF80
FFF0000000FFFF00
FFF0000001FFFE00
FFF0000007FFFE00
FFF000001FFFFC00
FFF00000FFFFF800
FFF0000FFFFFF000
FFFFFFFFFFFFE000
FFFFFFFFFFFFC000
FFFFFFFFFFFF0000
FFFFFFFFFFFE0000
FFFFFFFFFFFC0000
FFFFFFFFFFF00000
FFFFFFFFFFC00000
FFFFFFFFFF000000
FFFFFFFFF8000000
FFFFFFFFC0000000
FFFFFFF800000000
ENDCHAR
STARTCHAR E
ENCODING 69
SWIDTH 517 0
DWIDTH 54 0
BBX 41 74 9 0
BITMAP
FFFFFFFFFE00
FFFFFFFFFE00
FFFFFFFFFE00
FFFFFFFFFE00
FFFFFFFFFE00
FFFFFFFFFE00
FFFFFFFFFE00
FFFFFFFFFE00
FFFFFFFFFE00
FFFFFFFFFE00
FFFFFFFFFE00
FFF000000000
FFF000000000
FFF000000000
FFF000000000
FFF000000000
FFF000000000
FFF000000000
FFF000000000
FFF000000000
FFF000000000
FFF000000000
FFF000000000
FFF000000000
FFF000000000
FFF000000000
FFF000000000
FFF000000000
FFF000000000
FFF000000000
FFF000000000
FFFFFFFFF800
FFFFFFFFF800
FFFFFFFFF800
FFFFFFFFF800
FFFFFFFFF800
FFFFFFFFF800
FFFFFFFFF800
FFFFFFFFF800
FFFFFFFFF800
FFFFFFFFF800
FFFFFFFFF800
FFF000000000
FFF000000000
FFF000000000
FFF000000000
FFF000000000
FFF000000000
FFF000000000
FFF000000000
FFF000000000
FFF000000000
FFF000000000
FFF000000000
FFF000000000
FFF000000000
FFF000000000
FFF000000000
FFF000000000
FFF000000000
FFF000000000
FFF000000000
FFF000000000
FFFFFFFFFF80
FFFFFFFFFF80
FFFFFFFFFF80
FFFFFFFFFF80
FFFFFFFFFF80
FFFFFFFFFF80
FFFFFFFFFF80
FFFFFFFFFF80
FFFFFFFFFF80
FFFFFFFFFF80
FFFFFFFFFF80
ENDCHAR
STARTCHAR F
ENCODING 70
SWIDTH 502 0
DWIDTH 53 0
BBX 40 74 9 0
BITMAP
FFFFFFFFFF
FFFFFFFFFF
FFFFFFFFFF
FFFFFFFFFF
FFFFFFFFFF
FFFFFFFFFF
FFFFFFFFFF
FFFFFFFFFF
FFFFFFFFFF
FFFFFFFFFF
FFFFFFFFFF
FFF0000000
FFF0000000
FFF0000000
FFF0000000
FFF0000000
FFF0000000
FFF0000000
FFF0000000
FFF0000000
FFF0000000
FFF0000000
FFF0000000
FFF0000000
FFF0000000
FFF0000000
FFF0000000
FFF0000000
FFF0000000
FFF0000000
FFF0000000
FFF0000000
FFF0000000
FFFFFFFFFC
FFFFFFFFFC
FFFFFFFFFC
FFFFFFFFFC
FFFFFFFFFC
FFFFFFFFFC
FFFFFFFFFC
FFFFFFFFFC
FFFFFFFFFC
FFFFFFFFFC
FFFFFFFFFC
FFF0000000
FFF0000000
FFF0000000
FFF0000000
FFF0000000
FFF0000000
FFF0000000
FFF0000000
FFF0000000
FFF0000000
FFF0000000
FFF0000000
FFF0000000
FFF0000000
FFF0000000
FFF0000000
FFF0000000
FFF0000000
FFF0000000
FFF0000000
FFF0000000
FFF0000000
FFF0000000
FFF0000000
FFF0000000
FFF0000000
FFF0000000
FFF0000000
FFF0000000
FFF0000000
ENDCHAR
STARTCHAR G
ENCODING 71
SWIDTH 697 0
DWIDTH 73 0
BBX 62 76 4 -1
BITMAP
00000000FFFF0000
0000001FFFFFF800
000000FFFFFFFF80
000003FFFFFFFFE0
00000FFFFFFFFFF0
00003FFFFFFFFFF0
00007FFFFFFFFFF0
0001FFFFFFFFFFF0
0003FFFFFFFFFFF0
0007FFFFFFFFFFF0
000FFFFFFFFFFFF0
001FFFFFC003FFF0
003FFFFC00001FF0
007FFFF0000003F0
00FFFFC0000000F0
01FFFF0000000030
03FFFE0000000010
03FFFC0000000000
07FFF80000000000
07FFF00000000000
0FFFE00000000000
0FFFC00000000000
1FFF800000000000
1FFF800000000000
3FFF000000000000
3FFF000000000000
3FFE000000000000
7FFE000000000000
7FFC000000000000
7FFC000000000000
7FFC000000000000
7FFC000000000000
FFF8000000000000
FFF8000000000000
FFF8000000000000
FFF800001FFFFFFC
FFF800001FFFFFFC
FFF800001FFFFFFC
FFF800001FFFFFFC
FFF800001FFFFFFC
FFF800001FFFFFFC
FFF800001FFFFFFC
FFF800001FFFFFFC
FFF800001FFFFFFC
FFF800001FFFFFFC
FFFC00001FFFFFFC
7FFC000000003FFC
7FFC000000003FFC
7FFC000000003FFC
7FFE000000003FFC
7FFE000000003FFC
3FFE000000003FFC
3FFF000000003FFC
3FFF000000003FFC
1FFF800000003FFC
1FFFC00000003FFC
0FFFC00000003FFC
0FFFE00000003FFC
07FFF00000003FFC
07FFF80000003FFC
03FFFC0000003FFC
03FFFF0000003FFC
01FFFF8000007FFC
00FFFFF00001FFFC
007FFFFE001FFFFC
003FFFFFFFFFFFFC
001FFFFFFFFFFFFC
000FFFFFFFFFFFFC
0007FFFFFFFFFFFC
0003FFFFFFFFFFFC
0000FFFFFFFFFFF0
00007FFFFFFFFFC0
00001FFFFFFFFE00
000003FFFFFFF800
0000007FFFFF8000
00000003FFF00000
ENDCHAR
STARTCHAR H
ENCODING 72
SWIDTH 735 0
DWIDTH 77 0
BBX 59 74 9 0
BITMAP
FFF000000001FFE0
FFF000000001FFE0
FFF000000001FFE0
FFF000000001FFE0
FFF000000001FFE0
FFF000000001FFE0
FFF000000001FFE0
FFF000000001FFE0
FFF000000001FFE0
FFF000000001FFE0
FFF000000001FFE0
FFF000000001FFE0
FFF000000001FFE0
FFF000000001FFE0
FFF000000001FFE0
FFF000000001FFE0
FFF000000001FFE0
FFF000000001FFE0
FFF000000001FFE0
FFF000000001FFE0
FFF000000001FFE0
FFF000000001FFE0
FFF000000001FFE0
FFF000000001FFE0
FFF000000001FFE0
FFF000000001FFE0
FFF000000001FFE0
FFF000000001FFE0
FFF000000001FFE0
FFF000000001FFE0
FFF000000001FFE0
FFFFFFFFFFFFFFE0
FFFFFFFFFFFFFFE0
FFFFFFFFFFFFFFE0
FFFFFFFFFFFFFFE0
FFFFFFFFFFFFFFE0
FFFFFFFFFFFFFFE0
FFFFFFFFFFFFFFE0
FFFFFFFFFFFFFFE0
FFFFFFFFFFFFFFE0
FFFFFFFFFFFFFFE0
FFFFFFFFFFFFFFE0
FFF000000001FFE0
FFF000000001FFE0
FFF000000001FFE0
FFF000000001FFE0
FFF000000001FFE0
FFF000000001FFE0
FFF000000001FFE0
FFF000000001FFE0
FFF000000001FFE0
FFF000000001FFE0
FFF000000001FFE0
FFF000000001FFE0
FFF000000001FFE0
FFF000000001FFE0
FFF000000001FFE0
FFF000000001FFE0
FFF000000001FFE0
FFF000000001FFE0
FFF000000001FFE0
FFF000000001FFE0
FFF000000001FFE0
FFF000000001FFE0
FFF000000001FFE0
FFF000000001FFE0
FFF000000001FFE0
FFF000000001FFE0
FFF000000001FFE0
FFF000000001FFE0
FFF000000001FFE0
FFF000000001FFE0
FFF000000001FFE0
FFF000000001FFE0
ENDCHAR
STARTCHAR I
ENCODING 73
SWIDTH 291 0
DWIDTH 31 0
BBX 12 74 9 0
BITMAP
FFF0
FFF0
FFF0
FFF0
FFF0
FFF0
FFF0
FFF0
FFF0
FFF0
FFF0
FFF0
FFF0
FFF0
FFF0
FFF0
FFF0
FFF0
FFF0
FFF0
FFF0
FFF0
FFF0
FFF0
FFF0
FFF0
FFF0
FFF0
FFF0
FFF0
FFF0
FFF0
FFF0
FFF0
FFF0
FFF0
FFF0
FFF0
FFF0
FFF0
FFF0
FFF0
FFF0
FFF0
FFF0
FFF0
FFF0
FFF0
FFF0
FFF0
FFF0
FFF0
FFF0
FFF0
FFF0
FFF0
FFF0
FFF0
FFF0
FFF0
FFF0
FFF0
FFF0
FFF0
FFF0
FFF0
FFF0
FFF0
FFF0
FFF0
FFF0
FFF0
FFF0
FFF0
ENDCHAR
STARTCHAR J
ENCODING 74
SWIDTH 396 0
DWIDTH 42 0
BBX 32 75 1 -1
BITMAP
00000FFF
00000FFF
00000FFF
00000FFF
00000FFF
00000FFF
00000FFF
00000FFF
00000FFF
00000FFF
00000FFF
00000FFF
00000FFF
00000FFF
00000FFF
00000FFF
00000FFF
00000FFF
00000FFF
00000FFF
00000FFF
00000FFF
00000FFF
00000FFF
00000FFF
00000FFF
00000FFF
00000FFF
00000FFF
00000FFF
00000FFF
00000FFF
00000FFF
00000FFF
00000FFF
00000FFF
00000FFF
00000FFF
00000FFF
00000FFF
00000FFF
00000FFF
00000FFF
00000FFF
00000FFF
00000FFF
00000FFF
00000FFF
00000FFF
00000FFF
00000FFF
00000FFF
00001FFF
00001FFF
00001FFE
00001FFE
00003FFE
00003FFE
00007FFE
00007FFC
0000FFFC
0001FFF8
8003FFF8
E01FFFF8
FFFFFFF0
FFFFFFE0
FFFFFFE0
FFFFFFC0
FFFFFF80
FFFFFF00
FFFFFE00
FFFFF800
FFFFE000
FFFF8000
1FFC0000
ENDCHAR
STARTCHAR K
ENCODING 75
SWIDTH 610 0
DWIDTH 64 0
BBX 56 74 9 0
BITMAP
FFF0000001FFFC
FFF0000003FFF8
FFF0000007FFF0
FFF0000007FFE0
FFF000000FFFC0
FFF000001FFF80
FFF000003FFF80
FFF000007FFF00
FFF000007FFE00
FFF00000FFFC00
FFF00001FFF800
FFF00003FFF000
FFF00003FFF000
FFF00007FFE000
FFF0000FFFC000
FFF0001FFF8000
FFF0003FFF0000
FFF0003FFE0000
FFF0007FFE0000
FFF000FFFC0000
FFF001FFF80000
FFF003FFF00000
FFF003FFE00000
FFF007FFC00000
FFF00FFFC00000
FFF01FFF800000
FFF01FFF000000
FFF03FFE000000
FFF07FFC000000
FFF0FFFC000000
FFF1FFF8000000
FFF1FFF0000000
FFF3FFE0000000
FFF7FFC0000000
FFFFFF80000000
FFFFFF80000000
FFFFFF80000000
FFFFFFC0000000
FFF7FFE0000000
FFF7FFF0000000
FFF3FFF8000000
FFF1FFF8000000
FFF0FFFC000000
FFF07FFE000000
FFF07FFF000000
FFF03FFF800000
FFF01FFFC00000
FFF00FFFC00000
FFF00FFFE00000
FFF007FFF00000
FFF003FFF80000
FFF001FFFC0000
FFF000FFFC0000
FFF000FFFE0000
FFF0007FFF0000
FFF0003FFF8000
FFF0001FFFC000
FFF0001FFFE000
FFF0000FFFE000
FFF00007FFF000
FFF00003FFF800
FFF00003FFFC00
FFF00001FFFE00
FFF00000FFFE00
FFF000007FFF00
FFF000003FFF80
FFF000003FFFC0
FFF000001FFFE0
FFF000000FFFF0
FFF0000007FFF0
FFF0000007FFF8
FFF0000003FFFC
FFF0000001FFFE
FFF0000000FFFF
ENDCHAR
STARTCHAR L
ENCODING 76
SWIDTH 488 0
DWIDTH 51 0
BBX 40 74 9 0
BITMAP
FFF0000000
FFF0000000
FFF0000000
FFF0000000
FFF0000000
FFF0000000
FFF0000000
FFF0000000
FFF0000000
FFF0000000
FFF0000000
FFF0000000
FFF0000000
FFF0000000
FFF0000000
FFF0000000
FFF0000000
FFF0000000
FFF0000000
FFF0000000
FFF0000000
FFF0000000
FFF0000000
FFF0000000
FFF0000000
FFF0000000
FFF0000000
FFF0000000
FFF0000000
FFF0000000
FFF0000000
FFF0000000
FFF0000000
FFF0000000
FFF0000000
FFF0000000
FFF0000000
FFF0000000
FFF0000000
FFF0000000
FFF0000000
FFF0000000
FFF0000000
FFF0000000
FFF0000000
FFF0000000
FFF0000000
FFF0000000
FFF0000000
FFF0000000
FFF0000000
FFF0000000
FFF0000000
FFF0000000
FFF0000000
FFF0000000
FFF0000000
FFF0000000
FFF0000000
FFF0000000
FFF0000000
FFF0000000
FFF0000000
FFFFFFFFFF
FFFFFFFFFF
FFFFFFFFFF
FFFFFFFFFF
FFFFFFFFFF
FFFFFFFFFF
FFFFFFFFFF
FFFFFFFFFF
FFFFFFFFFF
FFFFFFFFFF
FFFFFFFFFF
ENDCHAR
STARTCHAR M
ENCODING 77
SWIDTH 924 0
DWIDTH 97 0
BBX 79 74 9 0
BITMAP
FFFFC00000000003FFFE
FFFFC00000000003FFFE
FFFFE00000000003FFFE
FFFFE00000000007FFFE
FFFFF00000000007FFFE
FFFFF0000000000FFFFE
FFFFF0000000000FFFFE
FFFFF8000000000FFFFE
FFFFF8000000001FFFFE
FFFFFC000000001FFFFE
FFFFFC000000003FFFFE
FFFFFC000000003FFFFE
FFFFFE000000003FEFFE
FFFFFE000000007FEFFE
FFFFFE000000007FFFFE
FFF7FF00000000FFFFFE
FFF7FF00000000FFDFFE
FFF7FF80000000FFDFFE
FFF7FF80000001FFDFFE
FFF3FF80000001FF9FFE
FFF3FFC0000003FF9FFE
FFF1FFC0000003FF1FFE
FFF1FFE0000003FF1FFE
FFF1FFE0000007FF1FFE
FFF0FFE0000007FE1FFE
FFF0FFF000000FFE1FFE
FFF07FF000000FFC1FFE
FFF07FF800000FFC1FFE
FFF07FF800001FFC1FFE
FFF03FF800001FF81FFE
FFF03FFC00003FF81FFE
FFF01FFC00003FF81FFE
FFF01FFC00003FF01FFE
FFF01FFE00007FF01FFE
FFF00FFE00007FE01FFE
FFF00FFF0000FFE01FFE
FFF007FF0000FFE01FFE
FFF007FF0000FFC01FFE
FFF007FF8001FFC01FFE
FFF003FF8001FF801FFE
FFF003FFC003FF801FFE
FFF001FFC003FF801FFE
FFF001FFC003FF001FFE
FFF001FFE007FF001FFE
FFF000FFE007FE001FFE
FFF000FFE007FE001FFE
FFF0007FF00FFE001FFE
FFF0007FF00FFC001FFE
FFF0007FF81FFC001FFE
FFF0003FF81FF8001FFE
FFF0003FF81FF8001FFE
FFF0001FFC3FF8001FFE
FFF0001FFC3FF0001FFE
FFF0001FFE7FF0001FFE
FFF0000FFE7FE0001FFE
FFF0000FFE7FE0001FFE
FFF00007FEFFE0001FFE
FFF00007FFFFC0001FFE
FFF00007FFFFC0001FFE
FFF00003FFFFC0001FFE
FFF00003FFFF80001FFE
FFF00001FFFF80001FFE
FFF00001FFFF00001FFE
FFF00001FFFF00001FFE
FFF00000FFFF00001FFE
FFF00000FFFE00001FFE
FFF000007FFE00001FFE
FFF000007FFC00001FFE
FFF000007FFC00001FFE
FFF000003FFC00001FFE
FFF000003FF800001FFE
FFF000003FF800001FFE
FFF000001FF000001FFE
FFF000001FF000001FFE
ENDCHAR
STARTCHAR N
ENCODING 78
SWIDTH 767 0
DWIDTH 81 0
BBX 63 74 9 0
BITMAP
FFFE000000001FFE
FFFE000000001FFE
FFFF000000001FFE
FFFF800000001FFE
FFFF800000001FFE
FFFFC00000001FFE
FFFFE00000001FFE
FFFFE00000001FFE
FFFFF00000001FFE
FFFFF80000001FFE
FFFFF80000001FFE
FFFFFC0000001FFE
FFFFFC0000001FFE
FFFFFE0000001FFE
FFFFFF0000001FFE
FFFFFF0000001FFE
FFFFFF8000001FFE
FFF7FFC000001FFE
FFF7FFC000001FFE
FFF3FFE000001FFE
FFF1FFF000001FFE
FFF1FFF000001FFE
FFF0FFF800001FFE
FFF07FFC00001FFE
FFF07FFC00001FFE
FFF03FFE00001FFE
FFF01FFE00001FFE
FFF01FFF00001FFE
FFF00FFF80001FFE
FFF007FF80001FFE
FFF007FFC0001FFE
FFF003FFE0001FFE
FFF003FFE0001FFE
FFF001FFF0001FFE
FFF000FFF8001FFE
FFF000FFF8001FFE
FFF0007FFC001FFE
FFF0003FFE001FFE
FFF0003FFE001FFE
FFF0001FFF001FFE
FFF0000FFF001FFE
FFF0000FFF801FFE
FFF00007FFC01FFE
FFF00003FFC01FFE
FFF00003FFE01FFE
FFF00001FFF01FFE
FFF00000FFF01FFE
FFF00000FFF81FFE
FFF000007FFC1FFE
FFF000003FFC1FFE
FFF000003FFE1FFE
FFF000001FFF1FFE
FFF000001FFF1FFE
FFF000000FFF9FFE
FFF0000007FF9FFE
FFF0000007FFDFFE
FFF0000003FFFFFE
FFF0000001FFEFFE
FFF0000001FFFFFE
FFF0000000FFFFFE
FFF00000007FFFFE
FFF00000007FFFFE
FFF00000003FFFFE
FFF00000001FFFFE
FFF00000001FFFFE
FFF00000000FFFFE
FFF000000007FFFE
FFF000000007FFFE
FFF000000003FFFE
FFF000000003FFFE
FFF000000001FFFE
FFF000000000FFFE
FFF000000000FFFE
FFF0000000007FFE
ENDCHAR
STARTCHAR O
ENCODING 79
SWIDTH 755 0
DWIDTH 79 0
BBX 71 76 4 -1
BITMAP
00000003FFE0000000
0000007FFFFE000000
000003FFFFFFC00000
00001FFFFFFFF80000
00007FFFFFFFFC0000
0000FFFFFFFFFF0000
0003FFFFFFFFFF8000
0007FFFFFFFFFFE000
000FFFFFFFFFFFF000
001FFFFFFFFFFFF800
003FFFFFFFFFFFFC00
007FFFFE007FFFFE00
00FFFFF0000FFFFE00
01FFFF800003FFFF00
01FFFF000000FFFF80
03FFFC0000007FFF80
07FFF80000001FFFC0
07FFF00000000FFFE0
0FFFE00000000FFFE0
0FFFC000000007FFF0
1FFFC000000003FFF0
1FFF8000000003FFF0
1FFF8000000001FFF8
3FFF0000000001FFF8
3FFF0000000000FFF8
3FFE0000000000FFFC
7FFE0000000000FFFC
7FFC00000000007FFC
7FFC00000000007FFC
7FFC00000000007FFC
7FFC00000000007FFE
FFFC00000000003FFE
FFF800000000003FFE
FFF800000000003FFE
FFF800000000003FFE
FFF800000000003FFE
FFF800000000003FFE
FFF800000000003FFE
FFF800000000003FFE
FFF800000000003FFE
FFF800000000003FFE
FFF800000000003FFE
FFF800000000003FFE
FFF800000000003FFE
FFF800000000003FFE
FFFC00000000007FFC
7FFC00000000007FFC
7FFC00000000007FFC
7FFC00000000007FFC
7FFE0000000000FFFC
7FFE0000000000FFF8
3FFE0000000000FFF8
3FFF0000000001FFF8
3FFF0000000001FFF0
1FFF8000000003FFF0
1FFFC000000003FFF0
1FFFC000000007FFE0
0FFFE00000000FFFE0
0FFFF00000001FFFC0
07FFF80000003FFFC0
03FFFC0000007FFF80
03FFFE000000FFFF00
01FFFF800003FFFF00
00FFFFE0000FFFFE00
007FFFFC007FFFFC00
007FFFFFFFFFFFF800
003FFFFFFFFFFFF000
001FFFFFFFFFFFE000
0007FFFFFFFFFFC000
0003FFFFFFFFFF8000
0001FFFFFFFFFE0000
00007FFFFFFFFC0000
00001FFFFFFFF00000
000007FFFFFFC00000
000000FFFFFE000000
00000007FFC0000000
ENDCHAR
STARTCHAR P
ENCODING 80
SWIDTH 584 0
DWIDTH 61 0
BBX 49 74 9 0
BITMAP
FFFFFFF8000000
FFFFFFFFC00000
FFFFFFFFF00000
FFFFFFFFFC0000
FFFFFFFFFF0000
FFFFFFFFFFC000
FFFFFFFFFFE000
FFFFFFFFFFF000
FFFFFFFFFFF800
FFFFFFFFFFF800
FFF0003FFFFC00
FFF00007FFFE00
FFF00001FFFE00
FFF00000FFFE00
FFF000007FFF00
FFF000003FFF00
FFF000001FFF00
FFF000001FFF80
FFF000001FFF80
FFF000000FFF80
FFF000000FFF80
FFF000000FFF80
FFF000000FFF80
FFF000000FFF80
FFF000000FFF80
FFF000000FFF80
FFF000000FFF80
FFF000001FFF80
FFF000001FFF00
FFF000001FFF00
FFF000003FFF00
FFF000003FFE00
FFF000007FFE00
FFF00000FFFE00
FFF00003FFFC00
FFF0000FFFFC00
FFF0007FFFF800
FFFFFFFFFFF000
FFFFFFFFFFE000
FFFFFFFFFFC000
FFFFFFFFFF8000
FFFFFFFFFF0000
FFFFFFFFFE0000
FFFFFFFFF80000
FFFFFFFFE00000
FFFFFFFF000000
FFFFFFF0000000
FFF00000000000
FFF00000000000
FFF00000000000
FFF00000000000
FFF00000000000
FFF00000000000
FFF00000000000
FFF00000000000
FFF00000000000
FFF00000000000
FFF00000000000
FFF00000000000
FFF00000000000
FFF00000000000
FFF00000000000
FFF00000000000
FFF00000000000
FFF00000000000
FFF00000000000
FFF00000000000
FFF00000000000
FFF00000000000
FFF00000000000
FFF00000000000
FFF00000000000
FFF00000000000
FFF00000000000
ENDCHAR
STARTCHAR Q
ENCODING 81
SWIDTH 755 0
DWIDTH 79 0
BBX 77 85 4 -10
BITMAP
00000003FFE000000000
0000007FFFFE00000000
000003FFFFFFC0000000
00000FFFFFFFF0000000
00003FFFFFFFFC000000
0000FFFFFFFFFF000000
0003FFFFFFFFFF800000
0007FFFFFFFFFFC00000
000FFFFFFFFFFFF00000
001FFFFFFFFFFFF80000
003FFFFFFFFFFFFC0000
007FFFFE007FFFFC0000
00FFFFF0000FFFFE0000
01FFFFC00003FFFF0000
01FFFF000000FFFF8000
03FFFC0000007FFF8000
07FFF80000001FFFC000
07FFF00000001FFFC000
0FFFE00000000FFFE000
0FFFE000000007FFE000
1FFFC000000003FFF000
1FFF8000000003FFF000
1FFF8000000001FFF800
3FFF0000000001FFF800
3FFF0000000000FFF800
3FFE0000000000FFFC00
7FFE0000000000FFFC00
7FFC00000000007FFC00
7FFC00000000007FFC00
7FFC00000000007FFC00
7FFC00000000007FFE00
FFFC00000000003FFE00
FFF800000000003FFE00
FFF800000000003FFE00
FFF800000000003FFE00
FFF800000000003FFE00
FFF800000000003FFE00
FFF800000000003FFE00
FFF800000000003FFE00
FFF800000000003FFE00
FFF800000000003FFE00
FFF800000000003FFE00
FFF800000000003FFE00
FFF800000000003FFE00
FFF800000000003FFE00
FFFC00000000007FFC00
7FFC00000000007FFC00
7FFC00000000007FFC00
7FFC00000000007FFC00
7FFE0000000000FFFC00
7FFE0000000000FFF800
3FFF0000000000FFF800
3FFF0000000001FFF800
3FFF0000000001FFF000
1FFF8000000003FFF000
1FFFC000000003FFF000
0FFFC000000007FFE000
0FFFE00000000FFFE000
07FFF00000001FFFC000
07FFF80000003FFFC000
03FFFC0000007FFF8000
03FFFE000000FFFF0000
01FFFF800003FFFF0000
00FFFFE0000FFFFE0000
007FFFFC00FFFFFC0000
007FFFFFFFFFFFF80000
003FFFFFFFFFFFF00000
001FFFFFFFFFFFE00000
0007FFFFFFFFFFC00000
0003FFFFFFFFFF800000
0001FFFFFFFFFFE00000
00007FFFFFFFFFF00000
00001FFFFFFFFFF80000
000007FFFFFFFFFE0000
000000FFFFFFFFFF0000
0000000FFFC0FFFF8000
0000000000007FFFE000
0000000000003FFFF000
0000000000000FFFF800
00000000000007FFFE00
00000000000003FFFF00
00000000000001FFFF80
000000000000007FFFE0
000000000000003FFFF0
000000000000001FFFF8
ENDCHAR
STARTCHAR R
ENCODING 82
SWIDTH 622 0
DWIDTH 65 0
BBX 57 74 9 0
BITMAP
FFFFFFFC00000000
FFFFFFFFC0000000
FFFFFFFFF8000000
FFFFFFFFFE000000
FFFFFFFFFF000000
FFFFFFFFFFC00000
FFFFFFFFFFE00000
FFFFFFFFFFF00000
FFFFFFFFFFF80000
FFFFFFFFFFF80000
FFF0001FFFFC0000
FFF00007FFFC0000
FFF00001FFFE0000
FFF00000FFFE0000
FFF000007FFE0000
FFF000003FFF0000
FFF000003FFF0000
FFF000003FFF0000
FFF000001FFF0000
FFF000001FFF0000
FFF000001FFF0000
FFF000001FFF0000
FFF000001FFF0000
FFF000001FFF0000
FFF000001FFF0000
FFF000003FFE0000
FFF000003FFE0000
FFF000003FFE0000
FFF000007FFC0000
FFF00000FFFC0000
FFF00001FFF80000
FFF00003FFF80000
FFF00007FFF00000
FFF0003FFFE00000
FFFFFFFFFFC00000
FFFFFFFFFF800000
FFFFFFFFFF000000
FFFFFFFFFC000000
FFFFFFFFF0000000
FFFFFFFFC0000000
FFFFFFFF00000000
FFFFFFFFC0000000
FFFFFFFFE0000000
FFFFFFFFF0000000
FFF007FFF8000000
FFF001FFFC000000
FFF0007FFE000000
FFF0003FFF000000
FFF0001FFF800000
FFF0000FFF800000
FFF00007FFC00000
FFF00007FFE00000
FFF00003FFE00000
FFF00001FFF00000
FFF00001FFF80000
FFF00000FFF80000
FFF00000FFFC0000
FFF000007FFE0000
FFF000003FFE0000
FFF000003FFF0000
FFF000001FFF8000
FFF000001FFF8000
FFF000000FFFC000
FFF0000007FFC000
FFF0000007FFE000
FFF0000003FFF000
FFF0000003FFF000
FFF0000001FFF800
FFF0000001FFFC00
FFF0000000FFFC00
FFF00000007FFE00
FFF00000007FFE00
FFF00000003FFF00
FFF00000003FFF80
ENDCHAR
STARTCHAR S
ENCODING 83
SWIDTH 544 0
DWIDTH 57 0
BBX 47 76 6 -1
BITMAP
000007FFF000
0000FFFFFF80
0007FFFFFFF0
001FFFFFFFF0
007FFFFFFFF0
00FFFFFFFFF0
03FFFFFFFFF0
07FFFFFFFFF0
0FFFFFFFFFF0
1FFFFFFFFFF0
1FFFFE003FF0
3FFFE00003F0
3FFF800000F0
7FFF00000030
7FFE00000010
7FFC00000000
FFFC00000000
FFF800000000
FFF800000000
FFF800000000
FFF800000000
FFF800000000
FFF800000000
FFFC00000000
FFFC00000000
7FFE00000000
7FFF00000000
7FFF80000000
3FFFE0000000
3FFFF0000000
1FFFFC000000
0FFFFF000000
0FFFFFC00000
07FFFFF80000
03FFFFFC0000
00FFFFFF0000
007FFFFFC000
003FFFFFE000
000FFFFFF800
0003FFFFFC00
0001FFFFFE00
00007FFFFF80
00001FFFFFC0
000007FFFFC0
000001FFFFE0
0000007FFFF0
0000001FFFF8
00000007FFF8
00000003FFFC
00000001FFFC
00000000FFFC
000000007FFE
000000007FFE
000000003FFE
000000003FFE
000000003FFE
000000003FFE
000000003FFE
000000003FFE
800000007FFE
C00000007FFE
E0000000FFFC
F8000001FFFC
FE000003FFFC
FFC0000FFFF8
FFFC007FFFF8
FFFFFFFFFFF0
FFFFFFFFFFE0
FFFFFFFFFFC0
FFFFFFFFFF80
FFFFFFFFFF00
FFFFFFFFFE00
7FFFFFFFF800
0FFFFFFFE000
01FFFFFF0000
0007FFC00000
ENDCHAR
STARTCHAR T
ENCODING 84
SWIDTH 551 0
DWIDTH 58 0
BBX 54 74 2 0
BITMAP
FFFFFFFFFFFFFC
FFFFFFFFFFFFFC
FFFFFFFFFFFFFC
FFFFFFFFFFFFFC
FFFFFFFFFFFFFC
FFFFFFFFFFFFFC
FFFFFFFFFFFFFC
FFFFFFFFFFFFFC
FFFFFFFFFFFFFC
FFFFFFFFFFFFFC
FFFFFFFFFFFFFC
000007FF800000
000007FF800000
000007FF800000
000007FF800000
000007FF800000
000007FF800000
000007FF800000
000007FF800000
000007FF800000
000007FF800000
000007FF800000
000007FF800000
000007FF800000
000007FF800000
000007FF800000
000007FF800000
000007FF800000
000007FF800000
000007FF800000
000007FF800000
000007FF800000
000007FF800000
000007FF800000
000007FF800000
000007FF800000
000007FF800000
000007FF800000
000007FF800000
000007FF800000
000007FF800000
000007FF800000
000007FF800000
000007FF800000
000007FF800000
000007FF800000
000007FF800000
000007FF800000
000007FF800000
000007FF800000
000007FF800000
000007FF800000
000007FF800000
000007FF800000
000007FF800000
000007FF800000
000007FF800000
000007FF800000
000007FF800000
000007FF800000
000007FF800000
000007FF800000
000007FF800000
000007FF800000
000007FF800000
000007FF800000
000007FF800000
000007FF800000
000007FF800000
000007FF800000
000007FF800000
000007FF800000
000007FF800000
000007FF800000
ENDCHAR
STARTCHAR U
ENCODING 85
SWIDTH 703 0
DWIDTH 74 0
BBX 57 75 8 -1
BITMAP
FFF000000007FF80
FFF000000007FF80
FFF000000007FF80
FFF000000007FF80
FFF000000007FF80
FFF000000007FF80
FFF000000007FF80
FFF000000007FF80
FFF000000007FF80
FFF000000007FF80
FFF000000007FF80
FFF000000007FF80
FFF000000007FF80
FFF000000007FF80
FFF000000007FF80
FFF000000007FF80
FFF000000007FF80
FFF000000007FF80
FFF000000007FF80
FFF000000007FF80
FFF000000007FF80
FFF000000007FF80
FFF000000007FF80
FFF000000007FF80
FFF000000007FF80
FFF000000007FF80
FFF000000007FF80
FFF000000007FF80
FFF000000007FF80
FFF000000007FF80
FFF000000007FF80
FFF000000007FF80
FFF000000007FF80
FFF000000007FF80
FFF000000007FF80
FFF000000007FF80
FFF000000007FF80
FFF000000007FF80
FFF000000007FF80
FFF000000007FF80
FFF000000007FF80
FFF000000007FF80
FFF000000007FF80
FFF000000007FF80
FFF000000007FF80
FFF000000007FF80
FFF000000007FF80
FFF000000007FF80
FFF000000007FF80
FFF800000007FF80
FFF80000000FFF80
FFF80000000FFF00
FFF80000000FFF00
7FFC0000000FFF00
7FFC0000001FFF00
7FFC0000001FFF00
7FFE0000003FFE00
3FFE0000003FFE00
3FFF0000007FFE00
3FFF800000FFFC00
1FFFC00001FFFC00
1FFFE00003FFFC00
1FFFF8000FFFF800
0FFFFF007FFFF800
07FFFFFFFFFFF000
07FFFFFFFFFFE000
03FFFFFFFFFFC000
01FFFFFFFFFF8000
00FFFFFFFFFF0000
007FFFFFFFFE0000
003FFFFFFFFC0000
000FFFFFFFF00000
0003FFFFFFC00000
00007FFFFE000000
000007FFE0000000
ENDCHAR
STARTCHAR V
ENCODING 86
SWIDTH 641 0
DWIDTH 67 0
BBX 65 74 1 0
BITMAP
FFF8000000000FFF80
7FFC000000000FFF00
7FFC000000001FFF00
7FFC000000001FFF00
3FFE000000001FFE00
3FFE000000003FFE00
3FFE000000003FFE00
1FFF000000003FFC00
1FFF000000007FFC00
1FFF000000007FFC00
0FFF800000007FF800
0FFF80000000FFF800
0FFF80000000FFF800
07FFC0000000FFF000
07FFC0000001FFF000
07FFC0000001FFF000
03FFE0000001FFE000
03FFE0000003FFE000
03FFE0000003FFE000
01FFE0000003FFC000
01FFF0000007FFC000
01FFF0000007FF8000
00FFF0000007FF8000
00FFF800000FFF8000
00FFF800000FFF0000
007FF800000FFF0000
007FFC00000FFF0000
007FFC00001FFE0000
003FFC00001FFE0000
003FFE00001FFE0000
001FFE00003FFC0000
001FFE00003FFC0000
001FFF00003FFC0000
000FFF00007FF80000
000FFF00007FF80000
000FFF80007FF80000
0007FF8000FFF00000
0007FF8000FFF00000
0007FF8000FFE00000
0003FFC001FFE00000
0003FFC001FFE00000
0003FFC001FFC00000
0001FFE003FFC00000
0001FFE003FFC00000
0001FFE003FF800000
0000FFF007FF800000
0000FFF007FF800000
0000FFF007FF000000
00007FF80FFF000000
00007FF80FFF000000
00007FF80FFE000000
00003FFC1FFE000000
00003FFC1FFE000000
00003FFC1FFC000000
00001FFE3FFC000000
00001FFE3FFC000000
00000FFE3FF8000000
00000FFE3FF8000000
00000FFF7FF0000000
000007FF7FF0000000
000007FF7FF0000000
000007FF7FE0000000
000003FFFFE0000000
000003FFFFE0000000
000003FFFFC0000000
000001FFFFC0000000
000001FFFFC0000000
000001FFFF80000000
000000FFFF80000000
000000FFFF80000000
000000FFFF00000000
0000007FFF00000000
0000007FFF00000000
0000007FFE00000000
ENDCHAR
STARTCHAR W
ENCODING 87
SWIDTH 965 0
DWIDTH 101 0
BBX 99 74 1 0
BITMAP
FFF80000000FFF80000003FFE0
FFFC0000000FFF80000003FFE0
7FFC0000000FFFC0000003FFC0
7FFC0000001FFFC0000003FFC0
7FFC0000001FFFC0000007FFC0
3FFE0000001FFFC0000007FFC0
3FFE0000001FFFE0000007FF80
3FFE0000003FFFE0000007FF80
3FFE0000003FFFE000000FFF80
1FFF0000003FFFE000000FFF00
1FFF0000007FFFF000000FFF00
1FFF0000007FFFF000000FFF00
1FFF0000007FFFF000001FFF00
0FFF8000007FFFF000001FFE00
0FFF800000FFFFF800001FFE00
0FFF800000FFFFF800001FFE00
07FF800000FFFFF800003FFE00
07FFC00000FFFFF800003FFC00
07FFC00001FFBFFC00003FFC00
07FFC00001FF9FFC00003FFC00
03FFC00001FF9FFC00007FF800
03FFE00003FF9FFC00007FF800
03FFE00003FF9FFE00007FF800
01FFE00003FF1FFE00007FF800
01FFE00003FF0FFE00007FF000
01FFF00007FF0FFE0000FFF000
01FFF00007FE0FFF0000FFF000
00FFF00007FE07FF0000FFF000
00FFF0000FFE07FF0000FFE000
00FFF8000FFE07FF8001FFE000
00FFF8000FFC07FF8001FFE000
007FF8000FFC03FF8001FFC000
007FF8001FFC03FF8001FFC000
007FFC001FFC03FFC003FFC000
003FFC001FF803FFC003FFC000
003FFC001FF801FFC003FF8000
003FFC003FF801FFC003FF8000
003FFE003FF001FFE007FF8000
001FFE003FF000FFE007FF8000
001FFE007FF000FFE007FF0000
001FFE007FF000FFE007FF0000
000FFF007FE000FFF00FFF0000
000FFF007FE0007FF00FFE0000
000FFF00FFE0007FF00FFE0000
000FFF00FFE0007FF00FFE0000
0007FF80FFC0007FF81FFE0000
0007FF81FFC0003FF81FFC0000
0007FF81FFC0003FF81FFC0000
0007FF81FFC0003FF81FFC0000
0003FFC1FF80003FFC1FFC0000
0003FFC3FF80001FFC3FF80000
0003FFC3FF80001FFC3FF80000
0001FFC3FF00001FFC3FF80000
0001FFC3FF00000FFE3FF00000
0001FFE7FF00000FFE7FF00000
0001FFE7FF00000FFE7FF00000
0000FFE7FE00000FFE7FF00000
0000FFE7FE000007FE7FE00000
0000FFEFFE000007FFFFE00000
0000FFFFFE000007FFFFE00000
00007FFFFC000007FFFFE00000
00007FFFFC000003FFFFC00000
00007FFFFC000003FFFFC00000
00003FFFF8000003FFFFC00000
00003FFFF8000001FFFF800000
00003FFFF8000001FFFF800000
00003FFFF8000001FFFF800000
00001FFFF0000001FFFF800000
00001FFFF0000000FFFF000000
00001FFFF0000000FFFF000000
00000FFFF0000000FFFF000000
00000FFFE0000000FFFF000000
00000FFFE00000007FFE000000
00000FFFE00000007FFE000000
ENDCHAR
STARTCHAR X
ENCODING 88
SWIDTH 619 0
DWIDTH 65 0
BBX 63 74 1 0
BITMAP
3FFF800000007FFE
1FFFC0000000FFFC
0FFFC0000000FFF8
0FFFE0000001FFF8
07FFE0000001FFF0
07FFF0000003FFF0
03FFF0000003FFE0
01FFF8000007FFC0
01FFFC00000FFFC0
00FFFC00000FFF80
00FFFE00001FFF80
007FFE00001FFF00
003FFF00003FFE00
003FFF00003FFE00
001FFF80007FFC00
001FFF80007FF800
000FFFC000FFF800
0007FFC001FFF000
0007FFE001FFF000
0003FFE003FFE000
0003FFF003FFC000
0001FFF007FFC000
0000FFF807FF8000
0000FFFC0FFF0000
00007FFC0FFF0000
00007FFE1FFE0000
00003FFE3FFE0000
00001FFF3FFC0000
00001FFF7FF80000
00000FFF7FF80000
00000FFFFFF00000
000007FFFFE00000
000003FFFFE00000
000003FFFFC00000
000001FFFFC00000
000001FFFF800000
000000FFFF000000
000000FFFF800000
000001FFFF800000
000003FFFFC00000
000003FFFFE00000
000007FFFFE00000
000007FFFFF00000
00000FFFFFF00000
00001FFEFFF80000
00001FFE7FFC0000
00003FFC7FFC0000
00007FFC3FFE0000
00007FF83FFE0000
0000FFF81FFF0000
0001FFF01FFF8000
0001FFF00FFF8000
0003FFE007FFC000
0007FFC007FFE000
0007FFC003FFE000
000FFF8003FFF000
001FFF8001FFF000
001FFF0001FFF800
003FFF0000FFFC00
007FFE0000FFFC00
007FFC00007FFE00
00FFFC00007FFE00
01FFF800003FFF00
01FFF800001FFF80
03FFF000001FFF80
03FFF000000FFFC0
07FFE000000FFFC0
0FFFC0000007FFE0
0FFFC0000007FFF0
1FFF80000003FFF0
3FFF80000003FFF8
3FFF00000001FFF8
7FFF00000000FFFC
FFFE00000000FFFE
ENDCHAR
STARTCHAR Y
ENCODING 89
SWIDTH 577 0
DWIDTH 61 0
BBX 60 74 1 0
BITMAP
FFFC00000001FFF0
7FFE00000003FFE0
7FFE00000003FFE0
3FFF00000007FFC0
3FFF00000007FFC0
1FFF0000000FFF80
1FFF8000000FFF80
0FFF8000001FFF00
0FFFC000001FFF00
07FFC000001FFE00
07FFE000003FFE00
03FFE000003FFC00
03FFF000007FFC00
01FFF000007FF800
01FFF80000FFF800
00FFF80000FFF000
00FFFC0001FFF000
007FFC0001FFE000
007FFE0003FFE000
003FFE0003FFC000
003FFE0007FFC000
001FFF0007FF8000
001FFF000FFF8000
000FFF800FFF0000
000FFF801FFF0000
0007FFC01FFE0000
0007FFC01FFC0000
0003FFE03FFC0000
0003FFE03FF80000
0001FFF07FF80000
0001FFF07FF00000
0000FFF8FFF00000
0000FFF8FFE00000
00007FF9FFE00000
00003FFDFFC00000
00003FFDFFC00000
00001FFFFF800000
00001FFFFF800000
00000FFFFF000000
00000FFFFF000000
000007FFFE000000
000007FFFE000000
000003FFFC000000
000003FFFC000000
000001FFF8000000
000001FFF8000000
000000FFF0000000
000000FFF0000000
000000FFF0000000
000000FFF0000000
000000FFF0000000
000000FFF0000000
000000FFF0000000
000000FFF0000000
000000FFF0000000
000000FFF0000000
000000FFF0000000
000000FFF0000000
000000FFF0000000
000000FFF0000000
000000FFF0000000
000000FFF0000000
000000FFF0000000
000000FFF0000000
000000FFF0000000
000000FFF0000000
000000FFF0000000
000000FFF0000000
000000FFF0000000
000000FFF0000000
000000FFF0000000
000000FFF0000000
000000FFF0000000
000000FFF0000000
ENDCHAR
STARTCHAR Z
ENCODING 90
SWIDTH 586 0
DWIDTH 62 0
BBX 58 74 2 0
BITMAP
1FFFFFFFFFFFFFC0
1FFFFFFFFFFFFFC0
1FFFFFFFFFFFFFC0
1FFFFFFFFFFFFFC0
1FFFFFFFFFFFFFC0
1FFFFFFFFFFFFFC0
1FFFFFFFFFFFFF80
1FFFFFFFFFFFFF80
1FFFFFFFFFFFFF00
1FFFFFFFFFFFFE00
1FFFFFFFFFFFFE00
00000000007FFC00
0000000000FFF800
0000000001FFF000
0000000003FFF000
0000000003FFE000
0000000007FFC000
000000000FFFC000
000000001FFF8000
000000001FFF0000
000000003FFE0000
000000007FFE0000
000000007FFC0000
00000000FFF80000
00000001FFF80000
00000003FFF00000
00000003FFE00000
00000007FFE00000
0000000FFFC00000
0000000FFF800000
0000001FFF000000
0000003FFF000000
0000007FFE000000
0000007FFC000000
000000FFFC000000
000001FFF8000000
000001FFF0000000
000003FFE0000000
000007FFE0000000
00000FFFC0000000
00000FFF80000000
00001FFF80000000
00003FFF00000000
00003FFE00000000
00007FFC00000000
0000FFFC00000000
0001FFF800000000
0001FFF000000000
0003FFF000000000
0007FFE000000000
0007FFC000000000
000FFF8000000000
001FFF8000000000
003FFF0000000000
003FFE0000000000
007FFE0000000000
00FFFC0000000000
00FFF80000000000
01FFF00000000000
03FFF00000000000
07FFE00000000000
07FFC00000000000
0FFFC00000000000
1FFFFFFFFFFFFF80
1FFFFFFFFFFFFF80
3FFFFFFFFFFFFF80
7FFFFFFFFFFFFF80
FFFFFFFFFFFFFF80
FFFFFFFFFFFFFF80
FFFFFFFFFFFFFF80
FFFFFFFFFFFFFF80
FFFFFFFFFFFFFF80
FFFFFFFFFFFFFF80
FFFFFFFFFFFFFF80
ENDCHAR
STARTCHAR bracketleft
ENCODING 91
SWIDTH 332 0
DWIDTH 35 0
BBX 21 91 11 -17
BITMAP
FFFFF8
FFFFF8
FFFFF8
FFFFF8
FFFFF8
FFFFF8
FFFFF8
FFFFF8
FFC000
FFC000
FFC000
FFC000
FFC000
FFC000
FFC000
FFC000
FFC000
FFC000
FFC000
FFC000
FFC000
FFC000
FFC000
FFC000
FFC000
FFC000
FFC000
FFC000
FFC000
FFC000
FFC000
FFC000
FFC000
FFC000
FFC000
FFC000
FFC000
FFC000
FFC000
FFC000
FFC000
FFC000
FFC000
FFC000
FFC000
FFC000
FFC000
FFC000
FFC000
FFC000
FFC000
FFC000
FFC000
FFC000
FFC000
FFC000
FFC000
FFC000
FFC000
FFC000
FFC000
FFC000
FFC000
FFC000
FFC000
FFC000
FFC000
FFC000
FFC000
FFC000
FFC000
FFC000
FFC000
FFC000
FFC000
FFC000
FFC000
FFC000
FFC000
FFC000
FFC000
FFC000
FFC000
FFFFF8
FFFFF8
FFFFF8
FFFFF8
FFFFF8
FFFFF8
FFFFF8
FFFFF8
ENDCHAR
STARTCHAR backslash
ENCODING 92
SWIDTH 404 0
DWIDTH 43 0
BBX 46 86 -1 -12
BITMAP
FFE000000000
7FF000000000
7FF000000000
7FF000000000
3FF800000000
3FF800000000
1FFC00000000
1FFC00000000
1FFC00000000
0FFE00000000
0FFE00000000
07FF00000000
07FF00000000
03FF00000000
03FF80000000
03FF80000000
01FFC0000000
01FFC0000000
00FFC0000000
00FFE0000000
00FFE0000000
007FF0000000
007FF0000000
003FF8000000
003FF8000000
003FF8000000
001FFC000000
001FFC000000
000FFE000000
000FFE000000
000FFE000000
0007FF000000
0007FF000000
0003FF800000
0003FF800000
0001FF800000
0001FFC00000
0001FFC00000
0000FFE00000
0000FFE00000
00007FE00000
00007FF00000
00007FF00000
00003FF80000
00003FF80000
00001FFC0000
00001FFC0000
00001FFC0000
00000FFE0000
00000FFE0000
000007FF0000
000007FF0000
000003FF0000
000003FF8000
000003FF8000
000001FFC000
000001FFC000
000000FFC000
000000FFE000
000000FFE000
0000007FF000
0000007FF000
0000003FF000
0000003FF800
0000003FF800
0000001FFC00
0000001FFC00
0000000FFC00
0000000FFE00
0000000FFE00
00000007FF00
00000007FF00
00000003FF80
00000003FF80
00000001FF80
00000001FFC0
00000001FFC0
00000000FFE0
00000000FFE0
000000007FE0
000000007FF0
000000007FF0
000000003FF8
000000003FF8
000000001FF8
000000001FFC
ENDCHAR
STARTCHAR bracketright
ENCODING 93
SWIDTH 332 0
DWIDTH 35 0
BBX 21 91 3 -17
BITMAP
FFFFF8
FFFFF8
FFFFF8
FFFFF8
FFFFF8
FFFFF8
FFFFF8
FFFFF8
001FF8
001FF8
001FF8
001FF8
001FF8
001FF8
001FF8
001FF8
001FF8
001FF8
001FF8
001FF8
001FF8
001FF8
001FF8
001FF8
001FF8
001FF8
001FF8
001FF8
001FF8
001FF8
001FF8
001FF8
001FF8
001FF8
001FF8
001FF8
001FF8
001FF8
001FF8
001FF8
001FF8
001FF8
001FF8
001FF8
001FF8
001FF8
001FF8
001FF8
001FF8
001FF8
001FF8
001FF8
001FF8
001FF8
001FF8
001FF8
001FF8
001FF8
001FF8
001FF8
001FF8
001FF8
001FF8
001FF8
001FF8
001FF8
001FF8
001FF8
001FF8
001FF8
001FF8
001FF8
001FF8
001FF8
001FF8
001FF8
001FF8
001FF8
001FF8
001FF8
001FF8
001FF8
001FF8
FFFFF8
FFFFF8
FFFFF8
FFFFF8
FFFFF8
FFFFF8
FFFFF8
FFFFF8
ENDCHAR
STARTCHAR asciicircum
ENCODING 94
SWIDTH 694 0
DWIDTH 73 0
BBX 51 43 11 32
BITMAP
000003F0000000
000007F0000000
000007F8000000
00000FF8000000
00000FFC000000
00001FFE000000
00001FFE000000
00003FFF000000
00003FFF000000
00007FFF800000
00007FFF800000
0000FFFFC00000
0000FFFFC00000
0001FF3FE00000
0003FF3FE00000
0003FE1FF00000
0007FE1FF80000
0007FC0FF80000
000FFC0FFC0000
000FF807FC0000
001FF807FE0000
001FF003FE0000
003FF003FF0000
003FE001FF0000
007FE001FF8000
007FC000FF8000
00FFC0007FC000
00FF80007FE000
01FF80003FE000
01FF00003FF000
03FF00001FF000
03FE00001FF800
07FE00000FF800
07FC00000FFC00
0FFC000007FC00
0FF8000007FE00
1FF8000003FE00
1FF0000003FF00
3FF0000001FF80
3FE0000001FF80
7FE0000000FFC0
7FC0000000FFC0
FFC00000007FE0
ENDCHAR
STARTCHAR underscore
ENCODING 95
SWIDTH 415 0
DWIDTH 44 0
BBX 44 6 0 -15
BITMAP
FFFFFFFFFFF0
FFFFFFFFFFF0
FFFFFFFFFFF0
FFFFFFFFFFF0
FFFFFFFFFFF0
FFFFFFFFFFF0
ENDCHAR
STARTCHAR grave
ENCODING 96
SWIDTH 288 0
DWIDTH 30 0
BBX 22 17 5 62
BITMAP
FFE000
7FF000
3FF000
1FF800
0FFC00
0FFC00
07FE00
03FF00
01FF00
01FF80
00FFC0
007FC0
003FE0
001FF0
001FF0
000FF8
0007FC
ENDCHAR
STARTCHAR a
ENCODING 97
SWIDTH 521 0
DWIDTH 55 0
BBX 45 55 4 -1
BITMAP
00003FFE0000
0007FFFFC000
003FFFFFF800
00FFFFFFFC00
03FFFFFFFE00
07FFFFFFFF00
07FFFFFFFF80
07FFFFFFFFC0
07FFFFFFFFE0
07FF803FFFE0
07FC0007FFF0
07E00003FFF0
07800001FFF0
07000000FFF0
04000000FFF8
00000000FFF8
000000007FF8
000000007FF8
000000007FF8
000000007FF8
00000007FFF8
000003FFFFF8
0000FFFFFFF8
000FFFFFFFF8
007FFFFFFFF8
01FFFFFFFFF8
03FFFFFFFFF8
07FFFFFFFFF8
0FFFFFF87FF8
1FFFFC007FF8
3FFF80007FF8
3FFE00007FF8
7FF800007FF8
7FF000007FF8
7FF000007FF8
FFE000007FF8
FFE000007FF8
FFE00000FFF8
FFE00000FFF8
FFE00001FFF8
FFE00001FFF8
FFF00003FFF8
FFF00007FFF8
FFF8000FFFF8
7FFC003FFFF8
7FFF00FFFFF8
7FFFFFFF7FF8
3FFFFFFF7FF8
3FFFFFFE7FF8
1FFFFFFC7FF8
0FFFFFF87FF8
07FFFFF07FF8
01FFFFC07FF8
007FFF007FF8
000FF8000000
ENDCHAR
STARTCHAR b
ENCODING 98
SWIDTH 602 0
DWIDTH 63 0
BBX 51 79 8 -1
BITMAP
FFF00000000000
FFF00000000000
FFF00000000000
FFF00000000000
FFF00000000000
FFF00000000000
FFF00000000000
FFF00000000000
FFF00000000000
FFF00000000000
FFF00000000000
FFF00000000000
FFF00000000000
FFF00000000000
FFF00000000000
FFF00000000000
FFF00000000000
FFF00000000000
FFF00000000000
FFF00000000000
FFF00000000000
FFF00000000000
FFF00000000000
FFF00000000000
FFF0007FE00000
FFF003FFFC0000
FFF00FFFFF0000
FFF03FFFFFC000
FFF07FFFFFE000
FFF0FFFFFFF000
FFF1FFFFFFF800
FFF3FFFFFFFC00
FFF7FFFFFFFC00
FFF7FC03FFFE00
FFFFF000FFFF00
FFFFC0003FFF00
FFFF80001FFF80
FFFF00001FFF80
FFFE00000FFF80
FFFE000007FFC0
FFFC000007FFC0
FFF8000003FFC0
FFF8000003FFC0
FFF8000003FFE0
FFF0000003FFE0
FFF0000001FFE0
FFF0000001FFE0
FFF0000001FFE0
FFF0000001FFE0
FFF0000001FFE0
FFF0000001FFE0
FFF0000001FFE0
FFF0000001FFE0
FFF0000001FFE0
FFF0000001FFE0
FFF0000001FFE0
FFF0000003FFE0
FFF0000003FFC0
FFF0000003FFC0
FFF0000003FFC0
FFF8000007FFC0
FFF8000007FFC0
FFF8000007FF80
FFFC00000FFF80
FFFE00001FFF80
FFFE00001FFF00
FFFF00003FFF00
FFFF80007FFE00
FFFFE001FFFE00
FFFFF807FFFC00
FFFFFFFFFFF800
FFF7FFFFFFF000
FFF3FFFFFFF000
FFF3FFFFFFE000
FFF1FFFFFF8000
FFF07FFFFF0000
FFF03FFFFC0000
FFF00FFFF00000
000001FF800000
ENDCHAR
STARTCHAR c
ENCODING 99
SWIDTH 470 0
DWIDTH 49 0
BBX 41 55 4 -1
BITMAP
000003FFC000
00003FFFFE00
0001FFFFFF80
0007FFFFFF80
000FFFFFFF80
003FFFFFFF80
007FFFFFFF80
00FFFFFFFF80
01FFFFFFFF80
03FFFF807F80
07FFFC000780
07FFF0000180
0FFFE0000080
0FFFC0000000
1FFF80000000
1FFF00000000
3FFE00000000
3FFC00000000
7FFC00000000
7FF800000000
7FF800000000
7FF800000000
FFF800000000
FFF000000000
FFF000000000
FFF000000000
FFF000000000
FFF000000000
FFF000000000
FFF000000000
FFF000000000
FFF000000000
FFF000000000
FFF800000000
FFF800000000
7FF800000000
7FFC00000000
7FFC00000000
7FFE00000000
3FFE00000000
3FFF00000000
1FFF80000080
1FFFC0000180
0FFFE0000380
07FFF8000F80
07FFFF007F80
03FFFFFFFF80
01FFFFFFFF80
00FFFFFFFF80
007FFFFFFF80
003FFFFFFF80
000FFFFFFF80
0003FFFFFE00
0000FFFFF000
00000FFF0000
ENDCHAR
STARTCHAR d
ENCODING 100
SWIDTH 602 0
DWIDTH 63 0
BBX 51 79 4 -1
BITMAP
0000000001FFE0
0000000001FFE0
0000000001FFE0
0000000001FFE0
0000000001FFE0
0000000001FFE0
0000000001FFE0
0000000001FFE0
0000000001FFE0
0000000001FFE0
0000000001FFE0
0000000001FFE0
0000000001FFE0
0000000001FFE0
0000000001FFE0
0000000001FFE0
0000000001FFE0
0000000001FFE0
0000000001FFE0
0000000001FFE0
0000000001FFE0
0000000001FFE0
0000000001FFE0
0000000001FFE0
00003FF001FFE0
0001FFFE01FFE0
0007FFFF81FFE0
001FFFFFE1FFE0
003FFFFFF1FFE0
007FFFFFF9FFE0
00FFFFFFFDFFE0
01FFFFFFFDFFE0
03FFFFFFFFFFE0
07FFFC03FFFFE0
0FFFF000FFFFE0
0FFFC0003FFFE0
1FFF80001FFFE0
1FFF00000FFFE0
3FFF000007FFE0
3FFE000007FFE0
3FFC000003FFE0
7FFC000003FFE0
7FFC000001FFE0
7FF8000001FFE0
7FF8000001FFE0
7FF8000001FFE0
FFF0000001FFE0
FFF0000001FFE0
FFF0000001FFE0
FFF0000001FFE0
FFF0000001FFE0
FFF0000001FFE0
FFF0000001FFE0
FFF0000001FFE0
FFF0000001FFE0
FFF0000001FFE0
FFF0000001FFE0
FFF0000001FFE0
FFF8000001FFE0
FFF8000003FFE0
7FF8000003FFE0
7FFC000003FFE0
7FFC000007FFE0
7FFC000007FFE0
3FFE00000FFFE0
3FFF00001FFFE0
3FFF80003FFFE0
1FFFC0007FFFE0
1FFFE000FFFFE0
0FFFFC07FFFFE0
07FFFFFFFDFFE0
07FFFFFFF9FFE0
03FFFFFFF1FFE0
01FFFFFFF1FFE0
00FFFFFFC1FFE0
007FFFFF81FFE0
001FFFFF01FFE0
0007FFFC01FFE0
0000FFC0000000
ENDCHAR
STARTCHAR e
ENCODING 101
SWIDTH 531 0
DWIDTH 56 0
BBX 49 55 4 -1
BITMAP
000007FF000000
00007FFFE00000
0003FFFFF80000
0007FFFFFE0000
001FFFFFFF8000
003FFFFFFFC000
007FFFFFFFE000
00FFFFFFFFF000
01FFFFFFFFF000
03FFFC07FFF800
07FFE001FFFC00
0FFFC0007FFC00
0FFF80003FFE00
1FFF00001FFE00
1FFE00001FFE00
3FFC00000FFF00
3FFC00000FFF00
3FF800000FFF00
7FF8000007FF00
7FF8000007FF80
7FF0000007FF80
FFF0000007FF80
FFFFFFFFFFFF80
FFFFFFFFFFFF80
FFFFFFFFFFFF80
FFFFFFFFFFFF80
FFFFFFFFFFFF80
FFFFFFFFFFFF80
FFFFFFFFFFFF80
FFFFFFFFFFFF80
FFF00000000000
FFF00000000000
FFF00000000000
FFF00000000000
7FF80000000000
7FF80000000000
7FF80000000000
7FFC0000000000
7FFC0000000000
3FFE0000000000
3FFE0000000000
1FFF0000000800
1FFF8000001800
0FFFE000007800
0FFFF80003F800
07FFFF003FF800
03FFFFFFFFF800
03FFFFFFFFF800
01FFFFFFFFF800
007FFFFFFFF800
003FFFFFFFF800
001FFFFFFFE000
0007FFFFFF8000
0000FFFFFC0000
00001FFF800000
ENDCHAR
STARTCHAR f
ENCODING 102
SWIDTH 344 0
DWIDTH 36 0
BBX 35 79 2 0
BITMAP
000001FFC0
00000FFFE0
00003FFFE0
0000FFFFE0
0001FFFFE0
0003FFFFE0
0007FFFFE0
000FFFFFE0
001FFFFFE0
001FFFC060
003FFF0000
003FFE0000
003FFC0000
007FFC0000
007FFC0000
007FF80000
007FF80000
007FF80000
007FF80000
007FF80000
007FF80000
007FF80000
007FF80000
007FF80000
007FF80000
007FF80000
FFFFFFFF80
FFFFFFFF80
FFFFFFFF80
FFFFFFFF80
FFFFFFFF80
FFFFFFFF80
FFFFFFFF80
FFFFFFFF80
FFFFFFFF80
007FF80000
007FF80000
007FF80000
007FF80000
007FF80000
007FF80000
007FF80000
007FF80000
007FF80000
007FF80000
007FF80000
007FF80000
007FF80000
007FF80000
007FF80000
007FF80000
007FF80000
007FF80000
007FF80000
007FF80000
007FF80000
007FF80000
007FF80000
007FF80000
007FF80000
007FF80000
007FF80000
007FF80000
007FF80000
007FF80000
007FF80000
007FF80000
007FF80000
007FF80000
007FF80000
007FF80000
007FF80000
007FF80000
007FF80000
007FF80000
007FF80000
007FF80000
007FF80000
007FF80000
ENDCHAR
STARTCHAR g
ENCODING 103
SWIDTH 602 0
DWIDTH 63 0
BBX 51 79 4 -25
BITMAP
00003FF0000000
0001FFFE01FFE0
0007FFFF81FFE0
001FFFFFE1FFE0
003FFFFFF1FFE0
00FFFFFFF9FFE0
01FFFFFFFDFFE0
01FFFFFFFDFFE0
03FFFFFFFFFFE0
07FFFE03FFFFE0
0FFFF000FFFFE0
0FFFC0003FFFE0
1FFF80001FFFE0
1FFF00000FFFE0
3FFF000007FFE0
3FFE000007FFE0
3FFC000003FFE0
7FFC000003FFE0
7FFC000001FFE0
7FF8000001FFE0
7FF8000001FFE0
7FF8000001FFE0
FFF0000001FFE0
FFF0000001FFE0
FFF0000001FFE0
FFF0000001FFE0
FFF0000001FFE0
FFF0000001FFE0
FFF0000001FFE0
FFF0000001FFE0
FFF0000001FFE0
FFF0000001FFE0
FFF0000001FFE0
FFF0000001FFE0
FFF8000001FFE0
FFF8000003FFE0
7FF8000003FFE0
7FFC000003FFE0
7FFC000007FFE0
7FFC000007FFE0
3FFE00000FFFE0
3FFF00001FFFE0
3FFF80003FFFE0
1FFFC0007FFFE0
1FFFE000FFFFE0
0FFFFC07FFFFE0
07FFFFFFFDFFE0
07FFFFFFF9FFE0
03FFFFFFF9FFE0
01FFFFFFF1FFE0
00FFFFFFC1FFE0
003FFFFF81FFE0
001FFFFF01FFE0
0007FFFC01FFE0
0000FFC001FFE0
0000000001FFE0
0000000001FFE0
0000000003FFC0
0000000003FFC0
0000000003FFC0
0000000007FFC0
0000000007FF80
000000000FFF80
000000000FFF80
000000001FFF00
080000003FFF00
0E0000007FFF00
0F800001FFFE00
0FF00007FFFC00
0FFE003FFFFC00
0FFFFFFFFFF800
0FFFFFFFFFF000
0FFFFFFFFFE000
0FFFFFFFFFC000
0FFFFFFFFF0000
0FFFFFFFFE0000
03FFFFFFF80000
007FFFFFC00000
0003FFF8000000
ENDCHAR
STARTCHAR h
ENCODING 104
SWIDTH 582 0
DWIDTH 61 0
BBX 47 78 8 0
BITMAP
FFF000000000
FFF000000000
FFF000000000
FFF000000000
FFF000000000
FFF000000000
FFF000000000
FFF000000000
FFF000000000
FFF000000000
FFF000000000
FFF000000000
FFF000000000
FFF000000000
FFF000000000
FFF000000000
FFF000000000
FFF000000000
FFF000000000
FFF000000000
FFF000000000
FFF000000000
FFF000000000
FFF000000000
FFF0007FC000
FFF007FFF800
FFF01FFFFE00
FFF03FFFFF80
FFF0FFFFFFC0
FFF1FFFFFFE0
FFF3FFFFFFE0
FFF3FFFFFFF0
FFF7FFFFFFF8
FFFFF80FFFF8
FFFFE003FFF8
FFFFC001FFFC
FFFF8000FFFC
FFFF00007FFC
FFFE00007FFC
FFFC00003FFE
FFFC00003FFE
FFF800003FFE
FFF800003FFE
FFF800001FFE
FFF000001FFE
FFF000001FFE
FFF000001FFE
FFF000001FFE
FFF000001FFE
FFF000001FFE
FFF000001FFE
FFF000001FFE
FFF000001FFE
FFF000001FFE
FFF000001FFE
FFF000001FFE
FFF000001FFE
FFF000001FFE
FFF000001FFE
FFF000001FFE
FFF000001FFE
FFF000001FFE
FFF000001FFE
FFF000001FFE
FFF000001FFE
FFF000001FFE
FFF000001FFE
FFF000001FFE
FFF000001FFE
FFF000001FFE
FFF000001FFE
FFF000001FFE
FFF000001FFE
FFF000001FFE
FFF000001FFE
FFF000001FFE
FFF000001FFE
FFF000001FFE
ENDCHAR
STARTCHAR i
ENCODING 105
SWIDTH 261 0
DWIDTH 27 0
BBX 14 78 7 0
BITMAP
0FC0
1FE0
3FF0
7FF8
FFFC
FFFC
FFFC
FFFC
FFFC
FFFC
7FF8
3FF0
1FE0
0FC0
0000
0000
0000
0000
0000
0000
0000
0000
0000
0000
0000
7FF8
7FF8
7FF8
7FF8
7FF8
7FF8
7FF8
7FF8
7FF8
7FF8
7FF8
7FF8
7FF8
7FF8
7FF8
7FF8
7FF8
7FF8
7FF8
7FF8
7FF8
7FF8
7FF8
7FF8
7FF8
7FF8
7FF8
7FF8
7FF8
7FF8
7FF8
7FF8
7FF8
7FF8
7FF8
7FF8
7FF8
7FF8
7FF8
7FF8
7FF8
7FF8
7FF8
7FF8
7FF8
7FF8
7FF8
7FF8
7FF8
7FF8
7FF8
7FF8
7FF8
ENDCHAR
STARTCHAR j
ENCODING 106
SWIDTH 261 0
DWIDTH 27 0
BBX 29 103 -8 -25
BITMAP
00001F80
00003FC0
00007FE0
0000FFF0
0001FFF8
0001FFF8
0001FFF8
0001FFF8
0001FFF8
0001FFF8
0000FFF0
00007FE0
00003FC0
00001F80
00000000
00000000
00000000
00000000
00000000
00000000
00000000
00000000
00000000
00000000
00000000
0000FFF0
0000FFF0
0000FFF0
0000FFF0
0000FFF0
0000FFF0
0000FFF0
0000FFF0
0000FFF0
0000FFF0
0000FFF0
0000FFF0
0000FFF0
0000FFF0
0000FFF0
0000FFF0
0000FFF0
0000FFF0
0000FFF0
0000FFF0
0000FFF0
0000FFF0
0000FFF0
0000FFF0
0000FFF0
0000FFF0
0000FFF0
0000FFF0
0000FFF0
0000FFF0
0000FFF0
0000FFF0
0000FFF0
0000FFF0
0000FFF0
0000FFF0
0000FFF0
0000FFF0
0000FFF0
0000FFF0
0000FFF0
0000FFF0
0000FFF0
0000FFF0
0000FFF0
0000FFF0
0000FFF0
0000FFF0
0000FFF0
0000FFF0
0000FFF0
0000FFF0
0000FFF0
0000FFF0
0000FFF0
0000FFF0
0000FFF0
0000FFF0
0001FFE0
0001FFE0
0001FFE0
0001FFE0
0003FFE0
0003FFC0
0003FFC0
0007FFC0
000FFF80
801FFF80
E07FFF00
FFFFFF00
FFFFFE00
FFFFFC00
FFFFF800
FFFFF000
FFFFE000
FFFF8000
FFFF0000
1FF00000
ENDCHAR
STARTCHAR k
ENCODING 107
SWIDTH 524 0
DWIDTH 55 0
BBX 47 78 8 0
BITMAP
FFF000000000
FFF000000000
FFF000000000
FFF000000000
FFF000000000
FFF000000000
FFF000000000
FFF000000000
FFF000000000
FFF000000000
FFF000000000
FFF000000000
FFF000000000
FFF000000000
FFF000000000
FFF000000000
FFF000000000
FFF000000000
FFF000000000
FFF000000000
FFF000000000
FFF000000000
FFF000000000
FFF000000000
FFF000000000
FFF00003FFF8
FFF00003FFF0
FFF00007FFE0
FFF0000FFFC0
FFF0001FFF80
FFF0003FFF80
FFF0003FFF00
FFF0007FFE00
FFF000FFFC00
FFF001FFF800
FFF001FFF000
FFF003FFF000
FFF007FFE000
FFF00FFFC000
FFF00FFF8000
FFF01FFF0000
FFF03FFF0000
FFF07FFE0000
FFF07FFC0000
FFF0FFF80000
FFF1FFF00000
FFF3FFE00000
FFF3FFE00000
FFF7FFC00000
FFFFFF800000
FFFFFF000000
FFFFFF800000
FFFFFFC00000
FFF7FFE00000
FFF3FFE00000
FFF3FFF00000
FFF1FFF80000
FFF0FFFC0000
FFF07FFE0000
FFF03FFF0000
FFF03FFF0000
FFF01FFF8000
FFF00FFFC000
FFF007FFE000
FFF007FFF000
FFF003FFF800
FFF001FFF800
FFF000FFFC00
FFF0007FFE00
FFF0007FFF00
FFF0003FFF80
FFF0001FFFC0
FFF0000FFFC0
FFF0000FFFE0
FFF00007FFF0
FFF00003FFF8
FFF00001FFFC
FFF00000FFFE
ENDCHAR
STARTCHAR l
ENCODING 108
SWIDTH 261 0
DWIDTH 27 0
BBX 12 78 8 0
BITMAP
FFF0
FFF0
FFF0
FFF0
FFF0
FFF0
FFF0
FFF0
FFF0
FFF0
FFF0
FFF0
FFF0
FFF0
FFF0
FFF0
FFF0
FFF0
FFF0
FFF0
FFF0
FFF0
FFF0
FFF0
FFF0
FFF0
FFF0
FFF0
FFF0
FFF0
FFF0
FFF0
FFF0
FFF0
FFF0
FFF0
FFF0
FFF0
FFF0
FFF0
FFF0
FFF0
FFF0
FFF0
FFF0
FFF0
FFF0
FFF0
FFF0
FFF0
FFF0
FFF0
FFF0
FFF0
FFF0
FFF0
FFF0
FFF0
FFF0
FFF0
FFF0
FFF0
FFF0
FFF0
FFF0
FFF0
FFF0
FFF0
FFF0
FFF0
FFF0
FFF0
FFF0
FFF0
FFF0
FFF0
FFF0
FFF0
ENDCHAR
STARTCHAR m
ENCODING 109
SWIDTH 885 0
DWIDTH 93 0
BBX 78 54 8 0
BITMAP
000000FF800000FFC000
FFF007FFF00007FFF800
FFF01FFFF8001FFFFE00
FFF07FFFFE007FFFFF00
FFF0FFFFFF00FFFFFF80
FFF1FFFFFF81FFFFFFC0
FFF3FFFFFFC3FFFFFFE0
FFF7FFFFFFC7FFFFFFE0
FFF7FFFFFFE7FFFFFFF0
FFFFF03FFFEFF81FFFF0
FFFFC00FFFFFE003FFF0
FFFF8007FFFFC001FFF8
FFFF0003FFFF8000FFF8
FFFE0001FFFF0000FFF8
FFFC0001FFFF00007FF8
FFFC0000FFFE00007FFC
FFF80000FFFE00007FFC
FFF80000FFFC00007FFC
FFF800007FFC00003FFC
FFF800007FFC00003FFC
FFF000007FF800003FFC
FFF000007FF800003FFC
FFF000007FF800003FFC
FFF000007FF800003FFC
FFF000007FF800003FFC
FFF000007FF800003FFC
FFF000007FF800003FFC
FFF000007FF800003FFC
FFF000007FF800003FFC
FFF000007FF800003FFC
FFF000007FF800003FFC
FFF000007FF800003FFC
FFF000007FF800003FFC
FFF000007FF800003FFC
FFF000007FF800003FFC
FFF000007FF800003FFC
FFF000007FF800003FFC
FFF000007FF800003FFC
FFF000007FF800003FFC
FFF000007FF800003FFC
FFF000007FF800003FFC
FFF000007FF800003FFC
FFF000007FF800003FFC
FFF000007FF800003FFC
FFF000007FF800003FFC
FFF000007FF800003FFC
FFF000007FF800003FFC
FFF000007FF800003FFC
FFF000007FF800003FFC
FFF000007FF800003FFC
FFF000007FF800003FFC
FFF000007FF800003FFC
FFF000007FF800003FFC
FFF000007FF800003FFC
ENDCHAR
STARTCHAR n
ENCODING 110
SWIDTH 583 0
DWIDTH 61 0
BBX 47 54 8 0
BITMAP
0000007FC000
FFF007FFF800
FFF01FFFFE00
FFF03FFFFF00
FFF0FFFFFF80
FFF1FFFFFFC0
FFF3FFFFFFE0
FFF3FFFFFFF0
FFF7FFFFFFF0
FFFFF80FFFF8
FFFFE003FFF8
FFFF8001FFFC
FFFF0000FFFC
FFFE00007FFC
FFFC00007FFC
FFFC00003FFE
FFF800003FFE
FFF800003FFE
FFF800001FFE
FFF000001FFE
FFF000001FFE
FFF000001FFE
FFF000001FFE
FFF000001FFE
FFF000001FFE
FFF000001FFE
FFF000001FFE
FFF000001FFE
FFF000001FFE
FFF000001FFE
FFF000001FFE
FFF000001FFE
FFF000001FFE
FFF000001FFE
FFF000001FFE
FFF000001FFE
FFF000001FFE
FFF000001FFE
FFF000001FFE
FFF000001FFE
FFF000001FFE
FFF000001FFE
FFF000001FFE
FFF000001FFE
FFF000001FFE
FFF000001FFE
FFF000001FFE
FFF000001FFE
FFF000001FFE
FFF000001FFE
FFF000001FFE
FFF000001FFE
FFF000001FFE
FFF000001FFE
ENDCHAR
STARTCHAR o
ENCODING 111
SWIDTH 597 0
DWIDTH 63 0
BBX 54 55 4 -1
BITMAP
000003FFC00000
00003FFFFC0000
0001FFFFFF8000
0007FFFFFFC000
001FFFFFFFF000
003FFFFFFFF800
007FFFFFFFFC00
01FFFFFFFFFE00
01FFFFFFFFFF00
03FFFE01FFFF80
07FFF0003FFFC0
0FFFE0000FFFC0
0FFFC00007FFE0
1FFF800003FFE0
1FFF000001FFF0
3FFE000001FFF0
3FFC000000FFF0
7FFC000000FFF8
7FFC0000007FF8
7FF80000007FF8
7FF80000007FF8
7FF80000007FFC
FFF00000003FFC
FFF00000003FFC
FFF00000003FFC
FFF00000003FFC
FFF00000003FFC
FFF00000003FFC
FFF00000003FFC
FFF00000003FFC
FFF00000003FFC
FFF00000003FFC
FFF00000003FFC
FFF80000007FF8
7FF80000007FF8
7FF80000007FF8
7FF80000007FF8
7FFC000000FFF8
3FFC000000FFF0
3FFE000001FFF0
3FFF000001FFE0
1FFF000003FFE0
1FFF800007FFC0
0FFFE0000FFFC0
07FFF0003FFF80
07FFFE01FFFF00
03FFFFFFFFFE00
01FFFFFFFFFE00
00FFFFFFFFF800
007FFFFFFFF000
001FFFFFFFE000
000FFFFFFF8000
0003FFFFFE0000
00007FFFF80000
00000FFF800000
ENDCHAR
STARTCHAR p
ENCODING 112
SWIDTH 602 0
DWIDTH 63 0
BBX 51 78 8 -24
BITMAP
0000007FE00000
FFF003FFFC0000
FFF00FFFFF0000
FFF03FFFFFC000
FFF07FFFFFE000
FFF0FFFFFFF000
FFF1FFFFFFF800
FFF3FFFFFFFC00
FFF7FFFFFFFC00
FFFFFC03FFFE00
FFFFF000FFFF00
FFFFC0003FFF00
FFFF80001FFF80
FFFF00001FFF80
FFFE00000FFF80
FFFC000007FFC0
FFFC000007FFC0
FFF8000003FFC0
FFF8000003FFC0
FFF8000003FFE0
FFF0000003FFE0
FFF0000001FFE0
FFF0000001FFE0
FFF0000001FFE0
FFF0000001FFE0
FFF0000001FFE0
FFF0000001FFE0
FFF0000001FFE0
FFF0000001FFE0
FFF0000001FFE0
FFF0000001FFE0
FFF0000001FFE0
FFF0000003FFE0
FFF0000003FFC0
FFF0000003FFC0
FFF0000003FFC0
FFF8000007FFC0
FFF8000007FFC0
FFF8000007FF80
FFFC00000FFF80
FFFC00001FFF00
FFFE00001FFF00
FFFF00003FFF00
FFFF80007FFE00
FFFFE001FFFC00
FFFFF807FFFC00
FFFFFFFFFFF800
FFF7FFFFFFF000
FFF3FFFFFFE000
FFF3FFFFFFC000
FFF1FFFFFF8000
FFF07FFFFF0000
FFF03FFFFC0000
FFF00FFFF00000
FFF001FF800000
FFF00000000000
FFF00000000000
FFF00000000000
FFF00000000000
FFF00000000000
FFF00000000000
FFF00000000000
FFF00000000000
FFF00000000000
FFF00000000000
FFF00000000000
FFF00000000000
FFF00000000000
FFF00000000000
FFF00000000000
FFF00000000000
FFF00000000000
FFF00000000000
FFF00000000000
FFF00000000000
FFF00000000000
FFF00000000000
FFF00000000000
ENDCHAR
STARTCHAR q
ENCODING 113
SWIDTH 602 0
DWIDTH 63 0
BBX 51 78 4 -24
BITMAP
00003FF0000000
0001FFFF01FFE0
0007FFFFC1FFE0
001FFFFFE1FFE0
003FFFFFF1FFE0
007FFFFFF9FFE0
00FFFFFFFDFFE0
01FFFFFFFDFFE0
03FFFFFFFFFFE0
07FFFC03FFFFE0
0FFFF000FFFFE0
0FFFC0003FFFE0
1FFF80001FFFE0
1FFF00000FFFE0
3FFF000007FFE0
3FFE000007FFE0
3FFC000003FFE0
7FFC000003FFE0
7FF8000001FFE0
7FF8000001FFE0
7FF8000001FFE0
7FF8000001FFE0
FFF0000001FFE0
FFF0000001FFE0
FFF0000001FFE0
FFF0000001FFE0
FFF0000001FFE0
FFF0000001FFE0
FFF0000001FFE0
FFF0000001FFE0
FFF0000001FFE0
FFF0000001FFE0
FFF0000001FFE0
FFF0000001FFE0
FFF8000001FFE0
FFF8000003FFE0
7FF8000003FFE0
7FF8000003FFE0
7FFC000007FFE0
7FFC000007FFE0
3FFE00000FFFE0
3FFF00001FFFE0
3FFF80003FFFE0
1FFFC0007FFFE0
1FFFE000FFFFE0
0FFFFC07FFFFE0
07FFFFFFFDFFE0
07FFFFFFF9FFE0
03FFFFFFF9FFE0
01FFFFFFF1FFE0
00FFFFFFE1FFE0
003FFFFF81FFE0
001FFFFF01FFE0
0007FFFC01FFE0
0000FFE001FFE0
0000000001FFE0
0000000001FFE0
0000000001FFE0
0000000001FFE0
0000000001FFE0
0000000001FFE0
0000000001FFE0
0000000001FFE0
0000000001FFE0
0000000001FFE0
0000000001FFE0
0000000001FFE0
0000000001FFE0
0000000001FFE0
0000000001FFE0
0000000001FFE0
0000000001FFE0
0000000001FFE0
0000000001FFE0
0000000001FFE0
0000000001FFE0
0000000001FFE0
0000000001FFE0
ENDCHAR
STARTCHAR r
ENCODING 114
SWIDTH 370 0
DWIDTH 39 0
BBX 30 54 8 0
BITMAP
000003F8
FFF00FFC
FFF03FFC
FFF07FFC
FFF0FFFC
FFF1FFFC
FFF1FFFC
FFF3FFFC
FFF3FFFC
FFF7FFFC
FFF7FFFC
FFFFF81C
FFFFE004
FFFFC000
FFFF0000
FFFF0000
FFFE0000
FFFC0000
FFFC0000
FFFC0000
FFF80000
FFF80000
FFF80000
FFF00000
FFF00000
FFF00000
FFF00000
FFF00000
FFF00000
FFF00000
FFF00000
FFF00000
FFF00000
FFF00000
FFF00000
FFF00000
FFF00000
FFF00000
FFF00000
FFF00000
FFF00000
FFF00000
FFF00000
FFF00000
FFF00000
FFF00000
FFF00000
FFF00000
FFF00000
FFF00000
FFF00000
FFF00000
FFF00000
FFF00000
ENDCHAR
STARTCHAR s
ENCODING 115
SWIDTH 431 0
DWIDTH 45 0
BBX 38 55 4 -1
BITMAP
0000FFF000
000FFFFF80
007FFFFFE0
01FFFFFFE0
03FFFFFFE0
07FFFFFFE0
0FFFFFFFE0
1FFFFFFFE0
3FFFFFFFE0
7FFFC01FE0
7FFE0003E0
7FFC000060
FFF8000020
FFF0000000
FFF0000000
FFF0000000
FFF0000000
FFF8000000
FFF8000000
FFFC000000
7FFF000000
7FFFC00000
3FFFF80000
3FFFFF0000
1FFFFFC000
0FFFFFF000
07FFFFFC00
01FFFFFF00
00FFFFFF80
003FFFFFC0
000FFFFFE0
0001FFFFF0
00003FFFF0
00000FFFF8
000003FFF8
000000FFFC
0000007FFC
0000007FFC
0000003FFC
0000003FFC
0000003FFC
8000003FFC
C000007FFC
F000007FF8
FC0001FFF8
FFC00FFFF8
FFFFFFFFF0
FFFFFFFFE0
FFFFFFFFC0
FFFFFFFF80
FFFFFFFF00
FFFFFFFE00
7FFFFFF800
0FFFFFC000
00FFFC0000
ENDCHAR
STARTCHAR t
ENCODING 116
SWIDTH 361 0
DWIDTH 38 0
BBX 34 70 2 -1
BITMAP
0000180000
0000F80000
000FF80000
007FF80000
007FF80000
007FF80000
007FF80000
007FF80000
007FF80000
007FF80000
007FF80000
007FF80000
007FF80000
007FF80000
007FF80000
007FF80000
FFFFFFFFC0
FFFFFFFFC0
FFFFFFFFC0
FFFFFFFFC0
FFFFFFFFC0
FFFFFFFFC0
FFFFFFFFC0
FFFFFFFFC0
FFFFFFFFC0
007FF80000
007FF80000
007FF80000
007FF80000
007FF80000
007FF80000
007FF80000
007FF80000
007FF80000
007FF80000
007FF80000
007FF80000
007FF80000
007FF80000
007FF80000
007FF80000
007FF80000
007FF80000
007FF80000
007FF80000
007FF80000
007FF80000
007FF80000
007FF80000
007FF80000
007FF80000
007FF80000
007FF80000
007FF80000
007FF80000
007FF80000
007FFC0000
007FFC0000
007FFC0000
007FFE0040
003FFF81C0
003FFFFFC0
003FFFFFC0
001FFFFFC0
001FFFFFC0
000FFFFFC0
0007FFFFC0
0003FFFFC0
0000FFFF80
00001FFC00
ENDCHAR
STARTCHAR u
ENCODING 117
SWIDTH 583 0
DWIDTH 61 0
BBX 47 54 7 -1
BITMAP
FFF000001FFE
FFF000001FFE
FFF000001FFE
FFF000001FFE
FFF000001FFE
FFF000001FFE
FFF000001FFE
FFF000001FFE
FFF000001FFE
FFF000001FFE
FFF000001FFE
FFF000001FFE
FFF000001FFE
FFF000001FFE
FFF000001FFE
FFF000001FFE
FFF000001FFE
FFF000001FFE
FFF000001FFE
FFF000001FFE
FFF000001FFE
FFF000001FFE
FFF000001FFE
FFF000001FFE
FFF000001FFE
FFF000001FFE
FFF000001FFE
FFF000001FFE
FFF000001FFE
FFF000001FFE
FFF000001FFE
FFF000001FFE
FFF000001FFE
FFF000001FFE
FFF000001FFE
FFF000003FFE
FFF800003FFE
FFF800003FFE
7FF800007FFE
7FFC00007FFE
7FFC0000FFFE
7FFE0001FFFE
7FFF0003FFFE
3FFF8007FFFE
3FFFE03FFFFE
1FFFFFFFDFFE
1FFFFFFFDFFE
0FFFFFFF9FFE
07FFFFFF1FFE
03FFFFFE1FFE
01FFFFFC1FFE
00FFFFF81FFE
003FFFE01FFE
0003FF000000
ENDCHAR
STARTCHAR v
ENCODING 118
SWIDTH 507 0
DWIDTH 53 0
BBX 53 53 0 0
BITMAP
FFF8000000FFF8
7FF8000000FFF0
7FFC000000FFF0
7FFC000001FFF0
3FFC000001FFE0
3FFE000001FFE0
3FFE000003FFE0
1FFE000003FFC0
1FFF000003FFC0
1FFF000007FF80
0FFF000007FF80
0FFF800007FF80
07FF80000FFF00
07FF80000FFF00
07FFC0000FFE00
03FFC0001FFE00
03FFC0001FFE00
03FFE0001FFC00
01FFE0003FFC00
01FFE0003FF800
00FFE0003FF800
00FFF0007FF800
00FFF0007FF000
007FF0007FF000
007FF800FFF000
007FF800FFE000
003FF800FFE000
003FFC01FFC000
003FFC01FFC000
001FFC01FFC000
001FFE03FF8000
000FFE03FF8000
000FFE03FF0000
000FFF07FF0000
0007FF07FF0000
0007FF07FE0000
0007FF8FFE0000
0003FF8FFE0000
0003FF8FFC0000
0001FFDFFC0000
0001FFDFF80000
0001FFDFF80000
0000FFDFF80000
0000FFDFF00000
0000FFFFF00000
00007FFFE00000
00007FFFE00000
00007FFFE00000
00003FFFC00000
00003FFFC00000
00001FFF800000
00001FFF800000
00001FFF800000
ENDCHAR
STARTCHAR w
ENCODING 119
SWIDTH 756 0
DWIDTH 79 0
BBX 77 53 1 0
BITMAP
FFF000003FF800003FF8
FFF800003FFC00007FF8
7FF800007FFC00007FF0
7FF800007FFC00007FF0
7FF800007FFC00007FF0
3FFC00007FFE0000FFE0
3FFC0000FFFE0000FFE0
3FFC0000FFFE0000FFE0
3FFC0000FFFE0000FFE0
1FFE0001FFFF0001FFC0
1FFE0001FFFF0001FFC0
1FFE0001FFFF0001FFC0
0FFE0001FFFF0001FF80
0FFF0003FFFF8003FF80
0FFF0003FDFF8003FF80
07FF0003FDFF8003FF80
07FF0003FCFF8003FF00
07FF8007FCFFC007FF00
07FF8007F8FFC007FF00
03FF8007F8FFC007FE00
03FF800FF87FC007FE00
03FFC00FF87FE00FFE00
01FFC00FF07FE00FFC00
01FFC00FF07FE00FFC00
01FFC01FF03FE00FFC00
01FFE01FE03FE00FFC00
00FFE01FE03FF01FF800
00FFE03FE03FF01FF800
00FFE03FE01FF01FF800
007FF03FC01FF01FF000
007FF03FC01FF83FF000
007FF07FC01FF83FF000
007FF07F800FF83FF000
003FF87F800FF83FE000
003FF87F800FFC7FE000
003FF8FF8007FC7FE000
001FF8FF0007FC7FC000
001FFCFF0007FC7FC000
001FFDFF0007FEFFC000
001FFDFE0003FEFFC000
000FFDFE0003FEFF8000
000FFDFE0003FEFF8000
000FFDFE0003FEFF8000
0007FFFC0001FFFF0000
0007FFFC0001FFFF0000
0007FFFC0001FFFF0000
0007FFF80001FFFE0000
0003FFF80000FFFE0000
0003FFF80000FFFE0000
0003FFF80000FFFE0000
0001FFF000007FFC0000
0001FFF000007FFC0000
0001FFF000007FFC0000
ENDCHAR
STARTCHAR x
ENCODING 120
SWIDTH 500 0
DWIDTH 53 0
BBX 51 53 1 0
BITMAP
7FFE000003FFE0
3FFF000007FFC0
3FFF000007FFC0
1FFF80000FFF80
0FFF80000FFF00
0FFFC0001FFF00
07FFC0003FFE00
03FFE0003FFC00
03FFE0007FFC00
01FFF0007FF800
01FFF000FFF000
00FFF800FFF000
007FFC01FFE000
007FFC03FFC000
003FFE03FFC000
001FFE07FF8000
001FFF07FF0000
000FFF0FFF0000
000FFF8FFE0000
0007FF9FFE0000
0003FFDFFC0000
0003FFFFF80000
0001FFFFF80000
0000FFFFF00000
0000FFFFE00000
00007FFFE00000
00003FFFC00000
00007FFFC00000
00007FFFE00000
0000FFFFF00000
0001FFFFF00000
0001FFFFF80000
0003FFFFF80000
0007FFBFFC0000
0007FF9FFE0000
000FFF1FFE0000
001FFE0FFF0000
001FFE0FFF8000
003FFC07FF8000
007FFC07FFC000
007FF803FFE000
00FFF801FFE000
01FFF001FFF000
01FFE000FFF800
03FFE000FFF800
07FFC0007FFC00
0FFFC0007FFE00
0FFF80003FFE00
1FFF00001FFF00
3FFF00001FFF80
3FFE00000FFF80
7FFE00000FFFC0
FFFC000007FFE0
ENDCHAR
STARTCHAR y
ENCODING 121
SWIDTH 508 0
DWIDTH 53 0
BBX 53 78 0 -25
BITMAP
FFF80000007FF8
7FFC000000FFF0
7FFC000000FFF0
7FFC000000FFF0
3FFE000001FFE0
3FFE000001FFE0
1FFE000001FFE0
1FFF000003FFC0
1FFF000003FFC0
0FFF000003FF80
0FFF800007FF80
07FF800007FF80
07FF800007FF00
07FFC0000FFF00
03FFC0000FFE00
03FFC0000FFE00
01FFE0001FFE00
01FFE0001FFC00
01FFE0001FFC00
00FFE0003FF800
00FFF0003FF800
00FFF0003FF800
007FF0007FF000
007FF8007FF000
003FF8007FF000
003FF800FFE000
003FFC00FFE000
001FFC00FFC000
001FFC01FFC000
000FFE01FFC000
000FFE01FF8000
000FFE03FF8000
0007FF03FF0000
0007FF03FF0000
0003FF07FF0000
0003FF87FE0000
0003FF87FE0000
0001FF8FFE0000
0001FFCFFC0000
0000FFCFFC0000
0000FFDFF80000
0000FFDFF80000
00007FFFF80000
00007FFFF00000
00003FFFF00000
00003FFFE00000
00003FFFE00000
00001FFFE00000
00001FFFC00000
00000FFFC00000
00000FFFC00000
00000FFF800000
000007FF800000
000007FF000000
00000FFF000000
00000FFF000000
00000FFE000000
00001FFE000000
00001FFC000000
00003FFC000000
00003FFC000000
00003FF8000000
00007FF8000000
00007FF0000000
0000FFF0000000
0001FFE0000000
0003FFE0000000
0007FFC0000000
301FFF80000000
3FFFFF80000000
3FFFFF00000000
3FFFFE00000000
3FFFFC00000000
3FFFF800000000
3FFFF000000000
3FFFC000000000
3FFF0000000000
3FF80000000000
ENDCHAR
STARTCHAR z
ENCODING 122
SWIDTH 464 0
DWIDTH 49 0
BBX 46 53 1 0
BITMAP
1FFFFFFFFFFC
1FFFFFFFFFFC
1FFFFFFFFFFC
1FFFFFFFFFFC
1FFFFFFFFFFC
1FFFFFFFFFFC
1FFFFFFFFFF8
1FFFFFFFFFF0
1FFFFFFFFFE0
00000007FFE0
0000000FFFC0
0000000FFF80
0000001FFF00
0000003FFF00
0000007FFE00
0000007FFC00
000000FFF800
000001FFF800
000003FFF000
000003FFE000
000007FFC000
00000FFFC000
00000FFF8000
00001FFF0000
00003FFE0000
00007FFE0000
00007FFC0000
0000FFF80000
0001FFF80000
0003FFF00000
0003FFE00000
0007FFC00000
000FFFC00000
001FFF800000
001FFF000000
003FFE000000
007FFE000000
00FFFC000000
00FFF8000000
01FFF0000000
03FFF0000000
07FFE0000000
07FFC0000000
0FFF80000000
1FFFFFFFFFFC
3FFFFFFFFFFC
3FFFFFFFFFFC
7FFFFFFFFFFC
FFFFFFFFFFFC
FFFFFFFFFFFC
FFFFFFFFFFFC
FFFFFFFFFFFC
FFFFFFFFFFFC
ENDCHAR
STARTCHAR braceleft
ENCODING 123
SWIDTH 332 0
DWIDTH 35 0
BBX 26 91 5 -17
BITMAP
000007C0
00007FC0
0001FFC0
0007FFC0
000FFFC0
001FFFC0
003FFFC0
003FFFC0
007FFE00
007FF800
007FF000
00FFE000
00FFE000
00FFE000
00FFC000
00FFC000
00FFC000
00FFC000
00FFC000
00FFC000
00FFC000
00FFC000
00FFC000
00FFC000
00FFC000
00FFC000
00FFC000
00FFC000
00FFC000
00FFC000
00FFC000
00FFC000
00FFC000
00FFC000
00FFC000
00FFC000
01FFC000
01FF8000
03FF8000
03FF8000
07FF0000
1FFE0000
FFFC0000
FFF80000
FFF00000
FF800000
FFC00000
FFF00000
FFFC0000
FFFE0000
1FFF0000
07FF0000
03FF8000
03FF8000
01FFC000
01FFC000
00FFC000
00FFC000
00FFC000
00FFC000
00FFC000
00FFC000
00FFC000
00FFC000
00FFC000
00FFC000
00FFC000
00FFC000
00FFC000
00FFC000
00FFC000
00FFC000
00FFC000
00FFC000
00FFC000
00FFC000
00FFC000
00FFC000
00FFE000
00FFE000
007FF000
007FF800
007FFE00
003FFFC0
003FFFC0
001FFFC0
000FFFC0
0007FFC0
0001FFC0
00007FC0
00000FC0
ENDCHAR
STARTCHAR bar
ENCODING 124
SWIDTH 278 0
DWIDTH 29 0
BBX 10 105 10 -25
BITMAP
FFC0
FFC0
FFC0
FFC0
FFC0
FFC0
FFC0
FFC0
FFC0
FFC0
FFC0
FFC0
FFC0
FFC0
FFC0
FFC0
FFC0
FFC0
FFC0
FFC0
FFC0
FFC0
FFC0
FFC0
FFC0
FFC0
FFC0
FFC0
FFC0
FFC0
FFC0
FFC0
FFC0
FFC0
FFC0
FFC0
FFC0
FFC0
FFC0
FFC0
FFC0
FFC0
FFC0
FFC0
FFC0
FFC0
FFC0
FFC0
FFC0
FFC0
FFC0
FFC0
FFC0
FFC0
FFC0
FFC0
FFC0
FFC0
FFC0
FFC0
FFC0
FFC0
FFC0
FFC0
FFC0
FFC0
FFC0
FFC0
FFC0
FFC0
FFC0
FFC0
FFC0
FFC0
FFC0
FFC0
FFC0
FFC0
FFC0
FFC0
FFC0
FFC0
FFC0
FFC0
FFC0
FFC0
FFC0
FFC0
FFC0
FFC0
FFC0
FFC0
FFC0
FFC0
FFC0
FFC0
FFC0
FFC0
FFC0
FFC0
FFC0
FFC0
FFC0
FFC0
FFC0
ENDCHAR
STARTCHAR braceright
ENCODING 125
SWIDTH 332 0
DWIDTH 35 0
BBX 26 91 4 -17
BITMAP
F8000000
FF800000
FFE00000
FFF80000
FFFC0000
FFFE0000
FFFF0000
FFFF0000
1FFF8000
07FF8000
03FF8000
01FFC000
01FFC000
01FFC000
00FFC000
00FFC000
00FFC000
00FFC000
00FFC000
00FFC000
00FFC000
00FFC000
00FFC000
00FFC000
00FFC000
00FFC000
00FFC000
00FFC000
00FFC000
00FFC000
00FFC000
00FFC000
00FFC000
00FFC000
00FFC000
00FFC000
00FFE000
007FE000
007FF000
007FF000
003FFC00
001FFE00
000FFFC0
0007FFC0
0003FFC0
00007FC0
0000FFC0
0003FFC0
000FFFC0
001FFFC0
003FFE00
003FF800
007FF000
007FF000
00FFE000
00FFE000
00FFC000
00FFC000
00FFC000
00FFC000
00FFC000
00FFC000
00FFC000
00FFC000
00FFC000
00FFC000
00FFC000
00FFC000
00FFC000
00FFC000
00FFC000
00FFC000
00FFC000
00FFC000
00FFC000
00FFC000
00FFC000
00FFC000
01FFC000
01FFC000
03FF8000
07FF8000
1FFF8000
FFFF0000
FFFF0000
FFFE0000
FFFC0000
FFF80000
FFE00000
FF800000
F8000000
ENDCHAR
STARTCHAR asciitilde
ENCODING 126
SWIDTH 694 0
DWIDTH 73 0
BBX 52 16 10 23
BITMAP
003FE000000FF0
00FFFC00000FF0
03FFFF80000FF0
07FFFFE0001FF0
0FFFFFF0001FE0
1FFFFFFC003FE0
3FFFFFFF007FE0
3FFFFFFFC0FFC0
7FF03FFFFFFFC0
7FE007FFFFFFC0
7FC001FFFFFF80
7F8000FFFFFF00
FF80003FFFFE00
FF00000FFFFC00
FF000003FFF000
FF0000007FC000
ENDCHAR
STARTCHAR uni00A0
ENCODING 160
SWIDTH 274 0
DWIDTH 29 0
BBX 1 1 0 0
BITMAP
00
ENDCHAR
STARTCHAR exclamdown
ENCODING 161
SWIDTH 303 0
DWIDTH 32 0
BBX 15 75 9 -21
BITMAP
07C0
1FF0
3FF8
7FFC
FFFE
FFFE
FFFE
FFFE
FFFE
FFFE
7FFC
3FF8
1FF0
07C0
0000
0000
0000
0000
0000
0000
0000
0000
0000
3FF8
3FF8
3FF8
3FF8
3FF8
3FF8
3FF8
3FF8
3FF8
3FF8
3FF8
3FF8
3FF8
3FF8
3FF8
3FF8
3FF8
3FF8
3FF8
3FF8
3FF8
3FF8
3FF8
3FF8
3FF8
3FF8
3FF8
3FF8
3FF8
3FF8
3FF8
3FF8
3FF8
7FF8
7FFC
7FFC
7FFC
7FFC
7FFC
7FFC
7FFC
7FFC
7FFC
7FFC
7FFC
7FFC
7FFC
7FFC
7FFC
7FFC
7FFC
7FFC
ENDCHAR
STARTCHAR cent
ENCODING 162
SWIDTH 555 0
DWIDTH 58 0
BBX 41 76 9 -3
BITMAP
000001FC0000
000001FC0000
000001FC0000
000001FC0000
000001FC0000
000001FC0000
000001FC0000
000001FC0000
000001FC0000
000001FC0000
000001FC0000
000001FFE000
00001FFFFC00
0000FFFFFF80
0003FFFFFF80
0007FFFFFF80
001FFFFFFF80
003FFFFFFF80
007FFFFFFF80
00FFFFFFFF80
01FFFFFFFF80
03FFFFFC7F80
07FFF1FC0F80
0FFFE1FC0180
0FFFC1FC0080
1FFF81FC0000
1FFF01FC0000
3FFE01FC0000
3FFC01FC0000
3FFC01FC0000
7FFC01FC0000
7FF801FC0000
7FF801FC0000
7FF801FC0000
FFF001FC0000
FFF001FC0000
FFF001FC0000
FFF001FC0000
FFF001FC0000
FFF001FC0000
FFF001FC0000
FFF001FC0000
FFF001FC0000
FFF001FC0000
FFF001FC0000
FFF801FC0000
7FF801FC0000
7FF801FC0000
7FFC01FC0000
7FFC01FC0000
3FFE01FC0000
3FFE01FC0000
1FFF01FC0000
1FFF81FC0080
0FFFC1FC0180
07FFF1FC0F80
07FFFFFC7F80
03FFFFFFFF80
01FFFFFFFF80
00FFFFFFFF80
007FFFFFFF80
001FFFFFFF80
000FFFFFFF80
0003FFFFFF00
0000FFFFF800
00000FFFC000
000001FC0000
000001FC0000
000001FC0000
000001FC0000
000001FC0000
000001FC0000
000001FC0000
000001FC0000
000001FC0000
000001FC0000
ENDCHAR
STARTCHAR sterling
ENCODING 163
SWIDTH 555 0
DWIDTH 58 0
BBX 48 75 6 0
BITMAP
0000001FFC00
000000FFFFC0
000003FFFFF0
00000FFFFFF0
00001FFFFFF0
00007FFFFFF0
0000FFFFFFF0
0000FFFFFFF0
0001FFFFFFF0
0003FFFC03F0
0003FFF00070
0007FFE00010
0007FFC00000
000FFF800000
000FFF800000
000FFF000000
001FFF000000
001FFF000000
001FFE000000
001FFE000000
001FFE000000
001FFE000000
001FFE000000
001FFE000000
001FFE000000
001FFE000000
001FFE000000
001FFE000000
001FFE000000
001FFE000000
001FFE000000
001FFE000000
001FFE000000
001FFE000000
3FFFFFFFF800
3FFFFFFFF800
3FFFFFFFF800
3FFFFFFFF800
3FFFFFFFF800
3FFFFFFFF800
3FFFFFFFF800
3FFFFFFFF800
3FFFFFFFF800
001FFE000000
001FFE000000
001FFE000000
001FFE000000
001FFE000000
001FFE000000
001FFE000000
001FFE000000
001FFE000000
001FFE000000
001FFE000000
001FFE000000
001FFC000000
003FFC000000
003FFC000000
003FF8000000
007FF0000000
007FF0000000
00FFE0000000
01FFC0000000
03FF80000000
07FE00000000
1FF800000000
FFFFFFFFFFFF
FFFFFFFFFFFF
FFFFFFFFFFFF
FFFFFFFFFFFF
FFFFFFFFFFFF
FFFFFFFFFFFF
FFFFFFFFFFFF
FFFFFFFFFFFF
FFFFFFFFFFFF
ENDCHAR
STARTCHAR currency
ENCODING 164
SWIDTH 555 0
DWIDTH 58 0
BBX 49 49 4 13
BITMAP
04000000001000
0E000000003800
1F000000007C00
3F800FF800FE00
7FC07FFF01FF00
FFE3FFFFC3FF80
7FF7FFFFF7FF00
3FFFFFFFFFFE00
1FFFFFFFFFFC00
0FFFFFFFFFF800
07FFFFFFFFF000
07FFF80FFFE000
03FFC001FFC000
03FF8000FFE000
07FE00007FE000
07FC00003FF000
07FC00001FF000
0FF800000FF800
0FF0000007F800
0FF0000007F800
1FF0000007FC00
1FE0000003FC00
1FE0000003FC00
1FE0000003FC00
1FE0000003FC00
1FE0000003FC00
1FE0000003FC00
1FE0000003FC00
1FF0000007FC00
0FF0000007F800
0FF0000007F800
0FF800000FF800
07FC00001FF000
07FC00003FF000
07FE00007FE000
03FF8000FFE000
01FFC001FFC000
03FFF80FFFE000
07FFFFFFFFF000
0FFFFFFFFFF800
1FFFFFFFFFFC00
3FFFFFFFFFFE00
7FFFFFFFF7FF00
FFE3FFFFE3FF80
7FC0FFFF81FF00
3F801FF800FE00
1F000000007C00
0E000000003800
04000000001000
ENDCHAR
STARTCHAR yen
ENCODING 165
SWIDTH 555 0
DWIDTH 58 0
BBX 54 74 3 0
BITMAP
FFF80000007FFC
7FFC0000007FF8
7FFC0000007FF8
3FFE000000FFF0
3FFE000000FFF0
1FFF000001FFE0
1FFF000001FFC0
0FFF800003FFC0
07FF800003FF80
07FF800007FF80
03FFC00007FF00
03FFC0000FFF00
01FFE0000FFE00
01FFE0001FFE00
00FFF0001FFC00
00FFF0001FFC00
007FF8003FF800
007FF8003FF800
003FFC007FF000
003FFC007FE000
001FFE00FFE000
000FFE00FFC000
000FFF01FFC000
0007FF01FF8000
0007FF03FF8000
0003FF83FF0000
0003FF87FF0000
0001FFC7FE0000
0001FFC7FE0000
0000FFEFFC0000
0000FFEFF80000
00007FFFF80000
00007FFFF00000
00003FFFF00000
0FFFFFFFFFFFC0
0FFFFFFFFFFFC0
0FFFFFFFFFFFC0
0FFFFFFFFFFFC0
0FFFFFFFFFFFC0
0FFFFFFFFFFFC0
0FFFFFFFFFFFC0
0FFFFFFFFFFFC0
000007FF800000
000007FF800000
000007FF800000
000007FF800000
000007FF800000
000007FF800000
000007FF800000
000007FF800000
000007FF800000
0FFFFFFFFFFFC0
0FFFFFFFFFFFC0
0FFFFFFFFFFFC0
0FFFFFFFFFFFC0
0FFFFFFFFFFFC0
0FFFFFFFFFFFC0
0FFFFFFFFFFFC0
0FFFFFFFFFFFC0
000007FF800000
000007FF800000
000007FF800000
000007FF800000
000007FF800000
000007FF800000
000007FF800000
000007FF800000
000007FF800000
000007FF800000
000007FF800000
000007FF800000
000007FF800000
000007FF800000
000007FF800000
ENDCHAR
STARTCHAR brokenbar
ENCODING 166
SWIDTH 278 0
DWIDTH 29 0
BBX 9 105 10 -25
BITMAP
FF80
FF80
FF80
FF80
FF80
FF80
FF80
FF80
FF80
FF80
FF80
FF80
FF80
FF80
FF80
FF80
FF80
FF80
FF80
FF80
FF80
FF80
FF80
FF80
FF80
FF80
FF80
FF80
FF80
FF80
FF80
FF80
FF80
FF80
FF80
FF80
FF80
FF80
FF80
FF80
FF80
FF80
FF80
FF80
FF80
0000
0000
0000
0000
0000
0000
0000
0000
0000
0000
0000
0000
0000
0000
0000
FF80
FF80
FF80
FF80
FF80
FF80
FF80
FF80
FF80
FF80
FF80
FF80
FF80
FF80
FF80
FF80
FF80
FF80
FF80
FF80
FF80
FF80
FF80
FF80
FF80
FF80
FF80
FF80
FF80
FF80
FF80
FF80
FF80
FF80
FF80
FF80
FF80
FF80
FF80
FF80
FF80
FF80
FF80
FF80
FF80
ENDCHAR
STARTCHAR section
ENCODING 167
SWIDTH 464 0
DWIDTH 49 0
BBX 37 79 7 -3
BITMAP
0001FFE000
000FFFFE00
003FFFFF80
00FFFFFF80
01FFFFFF80
03FFFFFF80
07FFFFFF80
0FFFFFFF80
0FFFFFFF80
1FFF803F80
1FFE000380
3FFC000080
3FFC000000
3FF8000000
3FF8000000
3FF8000000
3FF8000000
3FF8000000
3FFC000000
1FFE000000
1FFF000000
1FFF800000
0FFFE00000
07FFF80000
07FFFF0000
03FFFFC000
01FFFFF000
03FFFFF800
0FFFFFFE00
1FFFFFFF00
1FFFFFFF80
3FFC7FFFC0
7FF01FFFE0
7FE007FFE0
7FE001FFF0
FFC000FFF0
FFC0007FF8
FFC0003FF8
FFC0003FF8
FFC0001FF8
FFC0001FF8
FFE0001FF8
7FF0001FF8
7FF8001FF8
7FFC003FF0
3FFF003FF0
3FFF807FF0
1FFFF0FFE0
0FFFFDFFE0
07FFFFFFC0
03FFFFFF80
01FFFFFF00
007FFFFE00
001FFFFC00
0007FFFC00
0001FFFE00
00007FFF00
00001FFF00
000007FF80
000003FF80
000001FFC0
000000FFC0
000000FFC0
000000FFC0
000000FFC0
000000FFC0
400001FFC0
700003FF80
7C0007FF80
7FC01FFF80
7FFFFFFF00
7FFFFFFF00
7FFFFFFE00
7FFFFFFC00
7FFFFFF800
7FFFFFE000
3FFFFFC000
0FFFFE0000
00FFF00000
ENDCHAR
STARTCHAR dieresis
ENCODING 168
SWIDTH 435 0
DWIDTH 46 0
BBX 35 12 5 62
BITMAP
0F80003E00
3FE000FF80
7FF001FFC0
FFF003FFC0
FFF803FFE0
FFF803FFE0
FFF803FFE0
FFF803FFE0
7FF001FFC0
7FF001FFC0
3FE000FF80
0F80003E00
ENDCHAR
STARTCHAR copyright
ENCODING 169
SWIDTH 882 0
DWIDTH 93 0
BBX 77 77 8 -2
BITMAP
00000000FFF800000000
0000000FFFFFC0000000
0000007FFFFFF8000000
000003FFFFFFFE000000
00000FFFFFFFFF800000
00003FFF800FFFC00000
00007FF80000FFF00000
0000FFC000001FF80000
0003FF00000007FE0000
0007FC00000001FF0000
000FF800000000FF8000
001FE0000000003FC000
003FC0000FFF001FE000
007F80007FFFF00FF000
00FF0003FFFFFC07F800
00FE000FFFFFFC03F800
01FC001FFFFFFC01FC00
03F8007FFFFFFC00FE00
07F000FFFFFFFC007E00
07F001FFFFFFFC007F00
0FE003FFFFFFFC003F80
0FC003FFFC00FC001F80
1FC007FFE0001C001FC0
1F800FFF800004000FC0
3F800FFE000000000FC0
3F001FFC0000000007E0
3F001FF80000000007E0
7F003FF00000000007E0
7E003FF00000000003F0
7E007FE00000000003F0
7E007FE00000000003F0
7E007FC00000000003F0
FC007FC00000000001F8
FC00FFC00000000001F8
FC00FF800000000001F8
FC00FF800000000001F8
FC00FF800000000001F8
FC00FF800000000001F8
FC00FF800000000001F8
FC00FF800000000001F8
FC00FF800000000001F8
FC00FF800000000001F8
FC00FF800000000001F8
FC00FFC00000000001F8
FE00FFC00000000003F8
7E007FC00000000003F0
7E007FE00000000003F0
7E007FE00000000003F0
7E007FF00000000003F0
7F003FF00000000007E0
3F003FF80000000007E0
3F001FFC0000000007E0
3F801FFE000000000FC0
1F800FFF800004000FC0
1FC00FFFE0001C001FC0
0FC007FFFC01FC001F80
0FE003FFFFFFFC003F80
07F001FFFFFFFC007F00
07F000FFFFFFFC007E00
03F8007FFFFFFC00FE00
01FC003FFFFFFC01FC00
00FE000FFFFFFC03F800
00FF0007FFFFF807F800
007F8000FFFFC00FF000
003FC0001FFC001FE000
001FE0000000003FC000
000FF800000000FF8000
0007FC00000001FF0000
0003FF00000007FE0000
0000FFC000001FF80000
00007FF80000FFF00000
00003FFF800FFFC00000
00000FFFFFFFFF800000
000003FFFFFFFE000000
000000FFFFFFF0000000
0000001FFFFF80000000
00000000FFF800000000
ENDCHAR
STARTCHAR ordfeminine
ENCODING 170
SWIDTH 400 0
DWIDTH 42 0
BBX 32 39 4 36
BITMAP
000FFC00
00FFFF80
03FFFFE0
0FFFFFF0
0FFFFFF8
0FFFFFFC
0FFFFFFC
0FF01FFE
0F8007FE
0C0003FE
080003FF
000001FF
000001FF
000001FF
00000FFF
0007FFFF
00FFFFFF
03FFFFFF
0FFFFFFF
1FFFFFFF
3FFFF1FF
7FFC01FF
7FF001FF
7FC001FF
FFC001FF
FF8001FF
FF8001FF
FF8003FF
FF8003FF
FF8007FF
FFC00FFF
FFE01FFF
7FF07FFF
7FFFFFFF
3FFFFDFF
1FFFF9FF
0FFFF1FF
07FFC1FF
00FF0000
ENDCHAR
STARTCHAR guillemotleft
ENCODING 171
SWIDTH 539 0
DWIDTH 57 0
BBX 49 35 4 10
BITMAP
0000FFE003FF80
0001FFC007FF00
0003FF800FFE00
0007FF001FFC00
000FFE003FF800
001FFC007FF000
003FF800FFE000
007FF001FFC000
00FFE003FF8000
01FFC007FF0000
01FF800FFE0000
03FF000FFC0000
07FE001FF80000
0FFE003FF80000
1FFC007FF00000
3FF800FFE00000
7FF001FFC00000
FFE003FF800000
7FE001FF800000
3FF000FFC00000
1FF8007FE00000
0FFC003FF00000
0FFE003FF80000
07FF001FFC0000
03FF800FFE0000
01FFC007FF0000
00FFE003FF8000
007FF001FFC000
003FF800FFE000
001FFC007FF000
000FFE003FF800
0007FF001FFC00
0003FF800FFE00
0001FFC007FF00
0000FFE003FF80
ENDCHAR
STARTCHAR logicalnot
ENCODING 172
SWIDTH 694 0
DWIDTH 73 0
BBX 49 29 12 14
BITMAP
FFFFFFFFFFFF80
FFFFFFFFFFFF80
FFFFFFFFFFFF80
FFFFFFFFFFFF80
FFFFFFFFFFFF80
FFFFFFFFFFFF80
FFFFFFFFFFFF80
FFFFFFFFFFFF80
00000000007F80
00000000007F80
00000000007F80
00000000007F80
00000000007F80
00000000007F80
00000000007F80
00000000007F80
00000000007F80
00000000007F80
00000000007F80
00000000007F80
00000000007F80
00000000007F80
00000000007F80
00000000007F80
00000000007F80
00000000007F80
00000000007F80
00000000007F80
00000000007F80
ENDCHAR
STARTCHAR uni00AD
ENCODING 173
SWIDTH 401 0
DWIDTH 42 0
BBX 28 9 7 24
BITMAP
FFFFFFF0
FFFFFFF0
FFFFFFF0
FFFFFFF0
FFFFFFF0
FFFFFFF0
FFFFFFF0
FFFFFFF0
FFFFFFF0
ENDCHAR
STARTCHAR registered
ENCODING 174
SWIDTH 882 0
DWIDTH 93 0
BBX 63 61 15 13
BITMAP
0000003FF8000000
000003FFFF800000
00001FFFFFF00000
00007FFFFFFC0000
0001FFFFFFFF0000
0007FFC007FFC000
000FFE0000FFE000
001FF000001FF000
003FE000000FF800
007F80000003FC00
00FF00000001FE00
01FE3FFFE000FF00
03FC3FFFFE003F80
07F83FFFFF803FC0
07F03FFFFFC01FC0
0FE03FFFFFE00FE0
1FC03FFFFFF007F0
1FC03F807FF007F0
3F803F801FF803F8
3F803F800FF801F8
3F003F8007F801F8
7F003F8007F801FC
7E003F8007F800FC
7E003F8007F800FC
7E003F8007F800FC
FC003F800FF0007E
FC003F801FF0007E
FC003F807FE0007E
FC003FFFFFC0007E
FC003FFFFF80007E
FC003FFFFF00007E
FC003FFFF800007E
FC003FFFF800007E
FC003FFFFC00007E
FC003F87FE00007E
FC003F81FF00007E
7E003F80FF8000FC
7E003F807F8000FC
7E003F807FC000FC
7F003F803FC001FC
3F003F803FE001F8
3F003F801FE001F8
3F803F801FF003F8
1F803F800FF003F0
1FC03F800FF807F0
0FE03F800FF80FE0
07F03F8007FC1FC0
07F03F8007FC1FC0
03F83F8003FE3F80
01FC000000007F00
00FF00000001FE00
007F80000003FC00
003FE0000007F800
001FF000001FF000
000FFE0000FFE000
0007FFC007FFC000
0001FFFFFFFF0000
00007FFFFFFC0000
00001FFFFFF00000
000007FFFF800000
0000003FFC000000
ENDCHAR
STARTCHAR macron
ENCODING 175
SWIDTH 415 0
DWIDTH 44 0
BBX 44 6 0 72
BITMAP
FFFFFFFFFFF0
FFFFFFFFFFF0
FFFFFFFFFFF0
FFFFFFFFFFF0
FFFFFFFFFFF0
FFFFFFFFFFF0
ENDCHAR
STARTCHAR degree
ENCODING 176
SWIDTH 378 0
DWIDTH 40 0
BBX 29 29 5 46
BITMAP
003FC000
00FFF800
03FFFE00
07FFFF00
0FFFFF80
1FFFFFC0
3FFFFFE0
3FF07FE0
7FC01FF0
7F800FF0
FF0007F0
FF0007F8
FE0003F8
FE0003F8
FE0003F8
FE0003F8
FE0003F8
FF0007F8
7F0007F0
7F800FF0
7FC01FF0
3FF07FE0
3FFFFFE0
1FFFFFC0
0FFFFF80
07FFFF00
03FFFE00
00FFF800
001FE000
ENDCHAR
STARTCHAR plusminus
ENCODING 177
SWIDTH 694 0
DWIDTH 73 0
BBX 48 62 12 0
BITMAP
00000FF00000
00000FF00000
00000FF00000
00000FF00000
00000FF00000
00000FF00000
00000FF00000
00000FF00000
00000FF00000
00000FF00000
00000FF00000
00000FF00000
00000FF00000
00000FF00000
00000FF00000
00000FF00000
00000FF00000
00000FF00000
00000FF00000
00000FF00000
FFFFFFFFFFFF
FFFFFFFFFFFF
FFFFFFFFFFFF
FFFFFFFFFFFF
FFFFFFFFFFFF
FFFFFFFFFFFF
FFFFFFFFFFFF
FFFFFFFFFFFF
00000FF00000
00000FF00000
00000FF00000
00000FF00000
00000FF00000
00000FF00000
00000FF00000
00000FF00000
00000FF00000
00000FF00000
00000FF00000
00000FF00000
00000FF00000
00000FF00000
00000FF00000
00000FF00000
00000FF00000
00000FF00000
00000FF00000
00000FF00000
000000000000
000000000000
000000000000
000000000000
000000000000
000000000000
FFFFFFFFFFFF
FFFFFFFFFFFF
FFFFFFFFFFFF
FFFFFFFFFFFF
FFFFFFFFFFFF
FFFFFFFFFFFF
FFFFFFFFFFFF
FFFFFFFFFFFF
ENDCHAR
STARTCHAR uni00B2
ENCODING 178
SWIDTH 383 0
DWIDTH 40 0
BBX 29 45 6 45
BITMAP
003FE000
03FFFC00
0FFFFE00
1FFFFF80
3FFFFFC0
3FFFFFC0
3FFFFFE0
3FFFFFE0
3F80FFF0
3E007FF0
38003FF0
30001FF0
20001FF0
00001FF0
00001FF0
00001FF0
00001FF0
00003FF0
00003FE0
00007FE0
0000FFC0
0001FFC0
0003FF80
0007FF00
000FFF00
003FFE00
007FFC00
00FFF800
03FFF000
07FFC000
0FFF8000
1FFF0000
3FFC0000
3FF80000
7FF00000
7FC00000
FFC00000
FFFFFFF8
FFFFFFF8
FFFFFFF8
FFFFFFF8
FFFFFFF8
FFFFFFF8
FFFFFFF8
FFFFFFF8
ENDCHAR
STARTCHAR uni00B3
ENCODING 179
SWIDTH 383 0
DWIDTH 40 0
BBX 28 46 7 44
BITMAP
00FF8000
0FFFF000
3FFFFC00
7FFFFE00
7FFFFF00
7FFFFF80
7FFFFF80
7F8FFFC0
7800FFC0
60007FC0
40007FC0
00003FC0
00003FC0
00003FC0
00003FC0
00007FC0
0000FF80
0001FF80
001FFF00
0FFFFE00
0FFFF800
0FFFE000
0FFFFC00
0FFFFF00
0FFFFF80
0FFFFFC0
0007FFE0
0000FFE0
00003FE0
00003FF0
00001FF0
00001FF0
00001FF0
00001FF0
00001FF0
80003FE0
C0007FE0
F800FFE0
FFCFFFC0
FFFFFFC0
FFFFFF80
FFFFFF00
FFFFFE00
FFFFF800
1FFFE000
01FE0000
ENDCHAR
STARTCHAR acute
ENCODING 180
SWIDTH 291 0
DWIDTH 31 0
BBX 23 17 6 62
BITMAP
000FFE
001FFC
003FF8
003FF0
007FE0
00FFC0
01FFC0
01FF80
03FF00
07FE00
07FC00
0FF800
1FF000
3FF000
3FE000
7FC000
FF8000
ENDCHAR
STARTCHAR mu
ENCODING 181
SWIDTH 593 0
DWIDTH 62 0
BBX 48 73 8 -20
BITMAP
FFF000003FFC
FFF000003FFC
FFF000003FFC
FFF000003FFC
FFF000003FFC
FFF000003FFC
FFF000003FFC
FFF000003FFC
FFF000003FFC
FFF000003FFC
FFF000003FFC
FFF000003FFC
FFF000003FFC
FFF000003FFC
FFF000003FFC
FFF000003FFC
FFF000003FFC
FFF000003FFC
FFF000003FFC
FFF000003FFC
FFF000003FFC
FFF000003FFC
FFF000003FFC
FFF000003FFC
FFF000003FFC
FFF000003FFC
FFF000003FFC
FFF000003FFC
FFF000003FFC
FFF000003FFC
FFF000003FFC
FFF000003FFC
FFF000003FFC
FFF000003FFC
FFF000007FFC
FFF000007FFC
FFF800007FFC
FFF80000FFFC
FFFC0000FFFC
FFFC0001FFFC
FFFE0003FFFC
FFFF0007FFFC
FFFF800FFFFC
FFFFE03FFFFC
FFFFFFFFDFFC
FFFFFFFFDFFC
FFFFFFFF9FFC
FFFFFFFF9FFC
FFFFFFFF1FFE
FFFFFFFE1FFE
FFF7FFFE1FFE
FFF3FFFC1FFE
FFF0FFF00FFF
FFF03FC00000
FFF000000000
FFF000000000
FFF000000000
FFF000000000
FFF000000000
FFF000000000
FFF000000000
FFF000000000
FFF000000000
FFF000000000
FFF000000000
FFF000000000
FFF000000000
FFF000000000
FFF000000000
FFF000000000
FFF000000000
FFF000000000
FFF000000000
ENDCHAR
ENDFONT
